SplineFontDB: 3.0
FontName: Comme-Regular
FullName: Comme Regular
FamilyName: Comme
Weight: Regular
Copyright: Digitized data Copyright (c) 2011-2014, vernon adams.
Version: 2
ItalicAngle: 0
UnderlinePosition: 0
UnderlineWidth: 0
Ascent: 800
Descent: 200
UFOAscent: 761.719
UFODescent: -271.484
LayerCount: 2
Layer: 0 0 "Back"  1
Layer: 1 0 "Fore"  0
OS2Version: 0
OS2_WeightWidthSlopeOnly: 0
OS2_UseTypoMetrics: 0
CreationTime: 1393969530
ModificationTime: 1393969711
PfmFamily: 0
TTFWeight: 400
TTFWidth: 5
LineGap: 0
VLineGap: 0
OS2TypoAscent: 800
OS2TypoAOffset: 0
OS2TypoDescent: 1167
OS2TypoDOffset: 0
OS2TypoLinegap: 0
OS2WinAscent: 1167
OS2WinAOffset: 0
OS2WinDescent: 250
OS2WinDOffset: 0
HheadAscent: 0
HheadAOffset: 1
HheadDescent: 0
HheadDOffset: 1
OS2Vendor: 'NeWT'
Lookup: 4 0 1 "ligaStandardLigatureslookup0"  {"ligaStandardLigatureslookup0 subtable"  } ['liga' ('latn' <'dflt' > 'grek' <'dflt' > 'DFLT' <'dflt' > ) ]
Lookup: 4 0 0 "fracDiagonalFractionslookup11"  {"fracDiagonalFractionslookup11 subtable"  } ['frac' ('latn' <'dflt' 'CAT ' 'MOL ' 'ROM ' 'TRK ' > 'grek' <'dflt' > 'DFLT' <'dflt' > ) ]
Lookup: 6 0 0 "ordnOrdinalslookup12"  {"ordnOrdinalslookup12 contextual 0"  "ordnOrdinalslookup12 contextual 1"  } ['ordn' ('latn' <'dflt' 'CAT ' 'MOL ' 'ROM ' 'TRK ' > 'grek' <'dflt' > 'DFLT' <'dflt' > ) ]
Lookup: 1 0 0 "Single Substitution lookup 3"  {"Single Substitution lookup 3 subtable"  } []
Lookup: 1 0 0 "Single Substitution lookup 4"  {"Single Substitution lookup 4 subtable"  } []
Lookup: 4 0 0 "dligDiscretionaryLigatureslooku"  {"dligDiscretionaryLigatureslooku subtable"  } ['dlig' ('latn' <'dflt' 'CAT ' 'MOL ' 'ROM ' 'TRK ' > 'grek' <'dflt' > 'DFLT' <'dflt' > ) ]
MarkAttachClasses: 1
DEI: 91125
ChainSub2: coverage "ordnOrdinalslookup12 contextual 1"  0 0 0 1
 1 1 0
  Coverage: 3 O o
  BCoverage: 49 zero one two three four five six seven eight nine
 1
  SeqLookup: 0 "Single Substitution lookup 4" 
EndFPST

StartChar: A
Encoding: 65 65 0
Width: 692
VWidth: 0
GlyphClass: 2
Flags: HW
PickledData: "(dp1
S'org.pippin.gimp.org.kernagic'
p2
(dp3
S'lstem'
p4
I0
sS'rstem'
p5
I0
ssS'com.typemytype.robofont.layerData'
p6
(dp7
sS'org.robofab.postScriptHintData'
p8
(dp9
s."
AnchorPoint: "bot" 346 0 basechar 0
LayerCount: 2
Fore
SplineSet
297 711 m 257
 394 711 l 257
 662 0 l 257
 568 0 l 257
 486 221 l 257
 206 221 l 257
 125 0 l 257
 31 0 l 257
 297 711 l 257
228 287 m 257
 464 287 l 257
 346 619 l 257
 228 287 l 257
EndSplineSet
Validated: 1
Substitution2: "Single Substitution lookup 3 subtable" ordfeminine
EndChar

StartChar: AE
Encoding: 198 198 1
Width: 784
VWidth: 0
GlyphClass: 2
Flags: HW
PickledData: "(dp1
S'org.pippin.gimp.org.kernagic'
p2
(dp3
S'lstem'
p4
I0
sS'rstem'
p5
I0
ssS'com.typemytype.robofont.layerData'
p6
(dp7
sS'org.robofab.postScriptHintData'
p8
(dp9
s."
LayerCount: 2
Fore
SplineSet
381 291 m 257
 381 630 l 257
 206 291 l 257
 381 291 l 257
333 711 m 257
 756 711 l 257
 753 640 l 257
 469 640 l 257
 469 407 l 257
 725 407 l 257
 725 336 l 257
 469 336 l 257
 469 72 l 257
 764 72 l 257
 758 0 l 257
 381 0 l 257
 381 226 l 257
 173 226 l 257
 54 0 l 257
 -46 0 l 257
 333 711 l 257
EndSplineSet
Validated: 1
EndChar

StartChar: B
Encoding: 66 66 13
Width: 670
VWidth: 0
GlyphClass: 2
Flags: HW
PickledData: "(dp1
S'org.pippin.gimp.org.kernagic'
p2
(dp3
S'lstem'
p4
I0
sS'rstem'
p5
I0
ssS'com.typemytype.robofont.layerData'
p6
(dp7
sS'org.robofab.postScriptHintData'
p8
(dp9
s."
LayerCount: 2
Fore
SplineSet
272 -4 m 256
 221 -4 163 -1 99 4 c 257
 99 700 l 257
 180 710 248 715 304 715 c 256
 564 715 581 614 581 536 c 256
 581 471 550 415 460 386 c 257
 565 361 606 299 606 211 c 256
 606 59 511 -4 272 -4 c 256
194 642 m 257
 194 416 l 257
 326 416 l 258
 416 416 494 434 494 530 c 256
 494 609 449 648 308 648 c 256
 275 648 237 646 194 642 c 257
194 350 m 257
 194 70 l 257
 228 68 260 66 288 66 c 256
 496 66 512 129 512 208 c 256
 512 310 454 350 321 350 c 258
 194 350 l 257
EndSplineSet
Validated: 1
EndChar

StartChar: C
Encoding: 67 67 14
Width: 699
VWidth: 0
GlyphClass: 2
Flags: HW
PickledData: "(dp1
S'org.pippin.gimp.org.kernagic'
p2
(dp3
S'lstem'
p4
I0
sS'rstem'
p5
I0
ssS'com.typemytype.robofont.layerData'
p6
(dp7
sS'org.robofab.postScriptHintData'
p8
(dp9
s."
AnchorPoint: "bot" 386 0 basechar 0
LayerCount: 2
Fore
SplineSet
655 536 m 257
 586 511 l 257
 579 511 l 257
 561 590 486 646 397 646 c 256
 260 646 171 550 171 356 c 256
 171 162 261 65 397 65 c 256
 486 65 563 123 581 201 c 257
 588 201 l 257
 657 176 l 257
 631 51 510 -10 391 -10 c 256
 201 -10 74 124 74 356 c 256
 74 588 201 722 391 722 c 256
 509 722 629 661 655 536 c 257
EndSplineSet
Validated: 1
EndChar

StartChar: D
Encoding: 68 68 20
Width: 732
VWidth: 0
GlyphClass: 2
Flags: HW
PickledData: "(dp1
S'org.pippin.gimp.org.kernagic'
p2
(dp3
S'lstem'
p4
I0
sS'rstem'
p5
I0
ssS'com.fontlab.hintData'
p6
(dp7
S'vhints'
p8
((dp9
S'position'
p10
I1280
sS'width'
p11
I122
stp12
sS'hhints'
p13
((dp14
g10
I0
sg11
I94
s(dp15
g10
I1355
sg11
I94
stp16
ssS'com.typemytype.robofont.layerData'
p17
(dp18
sS'org.robofab.postScriptHintData'
p19
(dp20
s."
HStem: 0 46 662 46
VStem: 625 60
AnchorPoint: "bot" 380 -0 basechar 0
LayerCount: 2
Fore
SplineSet
99 5 m 257
 99 700 l 257
 168 709 230 714 284 714 c 256
 587 714 658 574 658 364 c 256
 658 145 556 -5 249 -5 c 256
 204 -5 153 -2 99 5 c 257
194 66 m 257
 222 63 249 62 273 62 c 256
 506 62 563 187 563 361 c 256
 563 536 514 647 292 647 c 256
 262 647 230 645 194 641 c 257
 194 66 l 257
EndSplineSet
Validated: 1
EndChar

StartChar: uni0394
Encoding: 916 916 23
Width: 651
VWidth: 0
GlyphClass: 2
Flags: HW
PickledData: "(dp1
S'org.pippin.gimp.org.kernagic'
p2
(dp3
S'lstem'
p4
I0
sS'rstem'
p5
I0
ssS'com.typemytype.robofont.layerData'
p6
(dp7
S'b'
(dp8
S'name'
p9
S'Delta'
p10
sS'lib'
p11
(dp12
sS'unicodes'
p13
(tsS'width'
p14
I1334
sS'contours'
p15
(tsS'components'
p16
(tsS'anchors'
p17
(tsssS'org.robofab.postScriptHintData'
p18
(dp19
s."
LayerCount: 2
Fore
SplineSet
129 74 m 257
 519 74 l 257
 323 636 l 257
 129 74 l 257
21 0 m 257
 280 726 l 257
 365 726 l 257
 628 0 l 257
 21 0 l 257
EndSplineSet
Validated: 1
EndChar

StartChar: E
Encoding: 69 69 24
Width: 639
VWidth: 0
GlyphClass: 2
Flags: HW
PickledData: "(dp1
S'org.pippin.gimp.org.kernagic'
p2
(dp3
S'lstem'
p4
I0
sS'rstem'
p5
I0
ssS'com.typemytype.robofont.layerData'
p6
(dp7
sS'org.robofab.postScriptHintData'
p8
(dp9
s."
AnchorPoint: "bot" 346 0 basechar 0
LayerCount: 2
Fore
SplineSet
99 711 m 257
 567 711 l 257
 564 640 l 257
 194 640 l 257
 194 404 l 257
 536 404 l 257
 536 332 l 257
 194 332 l 257
 194 72 l 257
 575 72 l 257
 569 0 l 257
 99 0 l 257
 99 711 l 257
EndSplineSet
Validated: 1
EndChar

StartChar: Eng
Encoding: 330 330 33
Width: 740
VWidth: 0
GlyphClass: 2
Flags: HW
PickledData: "(dp1
S'org.robofab.postScriptHintData'
p2
(dp3
s."
LayerCount: 2
Fore
SplineSet
559 447 m 257
 645 447 l 257
 645 0 l 258
 645 -161 561 -212 358 -212 c 257
 357 -143 l 257
 536 -143 560 -104 560 0 c 258
 559 447 l 257
EndSplineSet
Refer: 69 78 N 1 0 0 1 0 0 2
Validated: 5
EndChar

StartChar: Euro
Encoding: 8364 8364 36
Width: 679
VWidth: 0
GlyphClass: 2
Flags: HW
PickledData: "(dp1
S'org.pippin.gimp.org.kernagic'
p2
(dp3
S'lstem'
p4
I0
sS'rstem'
p5
I0
ssS'com.typemytype.robofont.layerData'
p6
(dp7
S'b'
(dp8
S'name'
p9
S'Euro'
p10
sS'lib'
p11
(dp12
sS'unicodes'
p13
(tsS'width'
p14
I1391
sS'contours'
p15
(tsS'components'
p16
(tsS'anchors'
p17
(tsssS'org.robofab.postScriptHintData'
p18
(dp19
s."
LayerCount: 2
Fore
SplineSet
-26 258 m 257
 -22 314 l 257
 60 314 l 257
 60 399 l 257
 -22 399 l 257
 -20 454 l 257
 401 454 l 257
 398 399 l 257
 105 399 l 257
 105 314 l 257
 398 314 l 257
 395 258 l 257
 -26 258 l 257
EndSplineSet
Refer: 14 67 N 1 0 0 1 -37 0 2
Validated: 5
EndChar

StartChar: F
Encoding: 70 70 37
Width: 587
VWidth: 0
GlyphClass: 2
Flags: HW
PickledData: "(dp1
S'org.pippin.gimp.org.kernagic'
p2
(dp3
S'lstem'
p4
I0
sS'rstem'
p5
I705
ssS'com.typemytype.robofont.layerData'
p6
(dp7
sS'org.robofab.postScriptHintData'
p8
(dp9
s."
LayerCount: 2
Fore
SplineSet
99 711 m 257
 571 711 l 257
 566 638 l 257
 194 638 l 257
 194 391 l 257
 512 391 l 257
 512 322 l 257
 194 322 l 257
 194 0 l 257
 99 0 l 257
 99 711 l 257
EndSplineSet
Validated: 1
EndChar

StartChar: G
Encoding: 71 71 38
Width: 721
VWidth: 0
GlyphClass: 2
Flags: HW
PickledData: "(dp1
S'org.pippin.gimp.org.kernagic'
p2
(dp3
S'lstem'
p4
I0
sS'rstem'
p5
I0
ssS'com.typemytype.robofont.layerData'
p6
(dp7
sS'org.robofab.postScriptHintData'
p8
(dp9
s."
AnchorPoint: "bot" 393 0 basechar 0
LayerCount: 2
Fore
SplineSet
401 -10 m 256
 182 -10 74 140 74 359 c 256
 74 580 200 721 414 721 c 256
 523 721 610 680 652 626 c 257
 605 574 l 257
 597 574 l 257
 566 608 506 646 417 646 c 256
 255 646 171 532 171 360 c 256
 171 179 238 65 418 65 c 256
 482 65 530 75 564 85 c 257
 564 302 l 257
 404 312 l 257
 409 375 l 257
 650 375 l 257
 650 36 l 257
 578 7 499 -10 401 -10 c 256
EndSplineSet
Validated: 1
EndChar

StartChar: H
Encoding: 72 72 44
Width: 752
VWidth: 0
GlyphClass: 2
Flags: HW
PickledData: "(dp1
S'org.pippin.gimp.org.kernagic'
p2
(dp3
S'lstem'
p4
I0
sS'rstem'
p5
I0
ssS'com.typemytype.robofont.layerData'
p6
(dp7
sS'org.robofab.postScriptHintData'
p8
(dp9
s."
LayerCount: 2
Fore
SplineSet
557 329 m 257
 196 329 l 257
 196 -0 l 257
 101 -0 l 257
 101 711 l 257
 196 711 l 257
 196 403 l 257
 557 403 l 257
 557 711 l 257
 652 711 l 257
 652 -0 l 257
 557 -0 l 257
 557 329 l 257
EndSplineSet
Validated: 1
EndChar

StartChar: Hbar
Encoding: 294 294 45
Width: 725
VWidth: 0
GlyphClass: 2
Flags: HW
PickledData: "(dp1
S'org.pippin.gimp.org.kernagic'
p2
(dp3
S'lstem'
p4
I0
sS'rstem'
p5
I0
ssS'com.typemytype.robofont.layerData'
p6
(dp7
sS'org.robofab.postScriptHintData'
p8
(dp9
s."
LayerCount: 2
Fore
SplineSet
31 625 m 257
 690 625 l 257
 690 564 l 257
 31 564 l 257
 31 625 l 257
EndSplineSet
Refer: 44 72 N 1 0 0 1 0 0 2
Validated: 5
EndChar

StartChar: I
Encoding: 73 73 47
Width: 475
VWidth: 0
GlyphClass: 2
Flags: HW
PickledData: "(dp1
S'org.pippin.gimp.org.kernagic'
p2
(dp3
S'lstem'
p4
I0
sS'rstem'
p5
I0
ssS'com.fontlab.hintData'
p6
(dp7
S'vhints'
p8
((dp9
S'position'
p10
I111
sS'width'
p11
I529
stp12
sS'hhints'
p13
((dp14
g10
I0
sg11
I86
s(dp15
g10
I1363
sg11
I86
stp16
ssS'com.typemytype.robofont.layerData'
p17
(dp18
sS'org.robofab.postScriptHintData'
p19
(dp20
s."
HStem: 0 42 666 42
VStem: 54 258
LayerCount: 2
Fore
SplineSet
93 711 m 257
 377 711 l 257
 377 653 l 257
 283 653 l 257
 283 58 l 257
 377 58 l 257
 377 -0 l 257
 93 -0 l 257
 93 58 l 257
 188 58 l 257
 188 653 l 257
 93 653 l 257
 93 711 l 257
EndSplineSet
Validated: 1
EndChar

StartChar: J
Encoding: 74 74 58
Width: 389
VWidth: 0
GlyphClass: 2
Flags: HW
PickledData: "(dp1
S'org.pippin.gimp.org.kernagic'
p2
(dp3
S'lstem'
p4
I132
sS'rstem'
p5
I0
ssS'com.typemytype.robofont.layerData'
p6
(dp7
sS'org.robofab.postScriptHintData'
p8
(dp9
s."
LayerCount: 2
Fore
SplineSet
181 711 m 257
 276 711 l 257
 276 14 l 258
 276 -119 254 -144 140 -186 c 257
 96 -201 l 257
 67 -130 l 257
 127 -104 l 258
 178 -83 181 -71 181 15 c 258
 181 711 l 257
EndSplineSet
Validated: 1
EndChar

StartChar: K
Encoding: 75 75 60
Width: 644
VWidth: 0
GlyphClass: 2
Flags: HW
PickledData: "(dp1
S'org.pippin.gimp.org.kernagic'
p2
(dp3
S'lstem'
p4
I0
sS'rstem'
p5
I851
ssS'com.typemytype.robofont.layerData'
p6
(dp7
sS'org.robofab.postScriptHintData'
p8
(dp9
s."
AnchorPoint: "bot" 338 0 basechar 0
LayerCount: 2
Fore
SplineSet
632 711 m 257
 632 701 l 257
 341 409 l 257
 650 9 l 257
 650 0 l 257
 544 0 l 257
 271 357 l 257
 194 282 l 257
 194 0 l 257
 99 0 l 257
 99 711 l 257
 194 711 l 257
 194 372 l 257
 528 711 l 257
 632 711 l 257
EndSplineSet
Validated: 1
EndChar

StartChar: L
Encoding: 76 76 62
Width: 538
VWidth: 0
GlyphClass: 2
Flags: HW
PickledData: "(dp1
S'org.pippin.gimp.org.kernagic'
p2
(dp3
S'lstem'
p4
I0
sS'rstem'
p5
I597
ssS'com.typemytype.robofont.layerData'
p6
(dp7
sS'org.robofab.postScriptHintData'
p8
(dp9
s."
AnchorPoint: "bot" 310 0 basechar 0
LayerCount: 2
Fore
SplineSet
99 711 m 257
 194 711 l 257
 194 71 l 257
 538 71 l 257
 535 0 l 257
 99 0 l 257
 99 711 l 257
EndSplineSet
Validated: 1
EndChar

StartChar: M
Encoding: 77 77 68
Width: 886
VWidth: 0
GlyphClass: 2
Flags: HW
PickledData: "(dp1
S'org.pippin.gimp.org.kernagic'
p2
(dp3
S'lstem'
p4
I0
sS'rstem'
p5
I0
ssS'org.robofab.postScriptHintData'
p6
(dp7
sS'com.typemytype.robofont.guides'
p8
((dp9
S'y'
I378
sS'x'
I548
sS'magnetic'
p10
I5
sS'angle'
p11
I0
sS'isGlobal'
p12
I00
stp13
sS'com.typemytype.robofont.layerData'
p14
(dp15
sS'com.fontlab.hintData'
p16
(dp17
S'vhints'
p18
((dp19
S'position'
p20
I185
sS'width'
p21
I166
s(dp22
g20
I214
sg21
I151
s(dp23
g20
I332
sg21
I33
s(dp24
g20
I1463
sg21
I149
s(dp25
g20
I1463
sg21
I39
s(dp26
g20
I1477
sg21
I164
stp27
ss."
VStem: 90 81 104 74 162 16 714 73 714 19 721 80
LayerCount: 2
Fore
SplineSet
89 -0 m 257
 89 237 l 257
 101 711 l 257
 214 711 l 257
 444 193 l 257
 675 711 l 257
 785 711 l 257
 797 237 l 257
 797 -0 l 257
 708 -0 l 257
 708 235 l 257
 704 583 l 257
 481 84 l 257
 404 84 l 257
 183 587 l 257
 179 234 l 257
 179 -0 l 257
 89 -0 l 257
EndSplineSet
Validated: 8388609
EndChar

StartChar: N
Encoding: 78 78 69
Width: 744
VWidth: 0
GlyphClass: 2
Flags: HW
PickledData: "(dp1
S'org.pippin.gimp.org.kernagic'
p2
(dp3
S'lstem'
p4
I0
sS'rstem'
p5
I0
ssS'com.typemytype.robofont.layerData'
p6
(dp7
sS'org.robofab.postScriptHintData'
p8
(dp9
s."
AnchorPoint: "bot" 378 0 basechar 0
LayerCount: 2
Fore
SplineSet
560 711 m 257
 645 711 l 257
 645 0 l 257
 546 0 l 257
 178 583 l 257
 186 361 l 257
 186 0 l 257
 99 0 l 257
 99 711 l 257
 194 711 l 257
 565 122 l 257
 560 326 l 257
 560 711 l 257
EndSplineSet
Validated: 1
EndChar

StartChar: O
Encoding: 79 79 74
Width: 791
VWidth: 0
GlyphClass: 2
Flags: HW
PickledData: "(dp1
S'org.pippin.gimp.org.kernagic'
p2
(dp3
S'lstem'
p4
I0
sS'rstem'
p5
I0
ssS'org.robofab.postScriptHintData'
p6
(dp7
sS'com.typemytype.robofont.guides'
p8
(tsS'com.typemytype.robofont.layerData'
p9
(dp10
sS'com.fontlab.hintData'
p11
(dp12
S'vhints'
p13
((dp14
S'position'
p15
I150
sS'width'
p16
I122
s(dp17
g15
I1390
sg16
I122
stp18
sS'hhints'
p19
((dp20
g15
I-19
sg16
I96
s(dp21
g15
I1372
sg16
I96
stp22
ss."
HStem: -9 47 670 47
VStem: 73 60 679 60
LayerCount: 2
Fore
SplineSet
619 352 m 256
 619 529 557 646 397 646 c 256
 237 646 173 530 173 352 c 256
 173 181 232 65 396 65 c 256
 561 65 619 181 619 352 c 256
76 352 m 256
 76 579 182 721 397 721 c 256
 607 721 715 578 715 351 c 256
 715 133 613 -10 397 -10 c 256
 178 -10 76 130 76 352 c 256
EndSplineSet
Validated: 1
Substitution2: "Single Substitution lookup 4 subtable" ordmasculine
EndChar

StartChar: OE
Encoding: 338 338 75
Width: 1149
VWidth: 0
GlyphClass: 2
Flags: HW
PickledData: "(dp1
S'org.pippin.gimp.org.kernagic'
p2
(dp3
S'lstem'
p4
I0
sS'rstem'
p5
I0
ssS'com.typemytype.robofont.layerData'
p6
(dp7
S'b'
(dp8
S'name'
p9
S'OE'
p10
sS'lib'
p11
(dp12
sS'unicodes'
p13
(tsS'width'
p14
I2367
sS'contours'
p15
(tsS'components'
p16
(tsS'anchors'
p17
(tsssS'org.robofab.postScriptHintData'
p18
(dp19
s."
LayerCount: 2
Fore
SplineSet
611 352 m 256
 611 529 549 646 387 646 c 256
 226 646 162 530 162 352 c 256
 162 181 221 65 387 65 c 256
 553 65 611 181 611 352 c 256
68 353 m 256
 68 580 175 721 388 721 c 256
 486 721 564 685 611 620 c 257
 611 711 l 257
 1077 711 l 257
 1073 640 l 257
 703 640 l 257
 703 403 l 257
 1045 403 l 257
 1045 332 l 257
 703 332 l 257
 703 72 l 257
 1084 72 l 257
 1079 0 l 257
 611 0 l 257
 611 88 l 257
 565 26 487 -10 387 -10 c 256
 170 -10 68 131 68 353 c 256
EndSplineSet
Validated: 1
EndChar

StartChar: Oslash
Encoding: 216 216 83
Width: 791
VWidth: 0
GlyphClass: 2
Flags: HW
PickledData: "(dp1
S'org.pippin.gimp.org.kernagic'
p2
(dp3
S'lstem'
p4
I0
sS'rstem'
p5
I0
ssS'com.typemytype.robofont.layerData'
p6
(dp7
sS'org.robofab.postScriptHintData'
p8
(dp9
s."
LayerCount: 2
Fore
SplineSet
396 65 m 256
 561 65 619 181 619 352 c 256
 619 466 594 555 532 604 c 257
 330 73 l 257
 350 68 372 65 396 65 c 256
281 93 m 257
 484 631 l 257
 459 640 430 646 397 646 c 256
 237 646 173 530 173 352 c 256
 173 230 203 136 281 93 c 257
255 -123 m 257
 206 -105 l 257
 252 17 l 257
 133 67 76 187 76 352 c 256
 76 579 182 721 397 721 c 256
 439 721 477 716 511 704 c 257
 557 826 l 257
 609 806 l 257
 562 682 l 257
 664 625 715 508 715 351 c 256
 715 133 613 -10 397 -10 c 256
 362 -10 331 -7 302 0 c 257
 255 -123 l 257
EndSplineSet
Validated: 1
EndChar

StartChar: P
Encoding: 80 80 86
Width: 638
VWidth: 0
GlyphClass: 2
Flags: HW
PickledData: "(dp1
S'org.pippin.gimp.org.kernagic'
p2
(dp3
S'lstem'
p4
I0
sS'rstem'
p5
I807
ssS'com.typemytype.robofont.layerData'
p6
(dp7
sS'org.robofab.postScriptHintData'
p8
(dp9
s."
LayerCount: 2
Fore
SplineSet
99 700 m 257
 179 709 247 714 305 714 c 256
 520 714 592 649 592 519 c 256
 592 396 538 306 298 306 c 256
 267 306 232 308 194 311 c 257
 194 0 l 257
 99 0 l 257
 99 700 l 257
194 378 m 257
 234 375 268 373 298 373 c 256
 473 373 505 428 505 517 c 256
 505 600 471 647 311 647 c 256
 278 647 239 645 194 641 c 257
 194 378 l 257
EndSplineSet
Validated: 1
EndChar

StartChar: Q
Encoding: 81 81 87
Width: 779
VWidth: 0
GlyphClass: 2
Flags: HW
PickledData: "(dp1
S'org.pippin.gimp.org.kernagic'
p2
(dp3
S'lstem'
p4
I0
sS'rstem'
p5
I0
ssS'com.typemytype.robofont.layerData'
p6
(dp7
sS'org.robofab.postScriptHintData'
p8
(dp9
s."
LayerCount: 2
Fore
SplineSet
402 19 m 257
 483 32 l 257
 487 26 623 -165 630 -171 c 257
 569 -215 l 257
 562 -209 403 15 402 19 c 257
EndSplineSet
Refer: 74 79 S 1 0 0 1 0 0 2
Validated: 5
EndChar

StartChar: R
Encoding: 82 82 88
Width: 660
VWidth: 0
GlyphClass: 2
Flags: HW
PickledData: "(dp1
S'org.pippin.gimp.org.kernagic'
p2
(dp3
S'lstem'
p4
I0
sS'rstem'
p5
I839
ssS'com.fontlab.hintData'
p6
(dp7
S'vhints'
p8
((dp9
S'position'
p10
I1122
sS'width'
p11
I117
stp12
sS'hhints'
p13
((dp14
g10
I722
sg11
I96
s(dp15
g10
I1355
sg11
I94
stp16
ssS'com.typemytype.robofont.layerData'
p17
(dp18
sS'org.robofab.postScriptHintData'
p19
(dp20
s."
HStem: 353 47 662 46
VStem: 548 57
AnchorPoint: "bot" 352 0 basechar 0
LayerCount: 2
Fore
SplineSet
606 523 m 256
 606 416 549 358 454 334 c 257
 625 10 l 257
 625 0 l 257
 523 0 l 257
 359 324 l 257
 196 323 l 257
 196 0 l 257
 101 0 l 257
 101 700 l 257
 189 710 263 715 325 715 c 256
 531 715 606 659 606 523 c 256
325 647 m 256
 289 647 246 645 196 641 c 257
 196 389 l 257
 320 389 l 258
 480 389 519 427 519 521 c 256
 519 605 485 647 325 647 c 256
EndSplineSet
Validated: 1
EndChar

StartChar: S
Encoding: 83 83 92
Width: 596
VWidth: 0
GlyphClass: 2
Flags: HW
PickledData: "(dp1
S'org.pippin.gimp.org.kernagic'
p2
(dp3
S'lstem'
p4
I185
sS'rstem'
p5
I826
ssS'com.typemytype.robofont.guides'
p6
((dp7
S'y'
I973
sS'x'
I1035
sS'magnetic'
p8
I5
sS'angle'
p9
F90
sS'isGlobal'
p10
I00
s(dp11
S'y'
I382
sS'x'
I75
sg8
I5
sg9
F90
sg10
I00
stp12
sS'com.typemytype.robofont.layerData'
p13
(dp14
sS'org.robofab.postScriptHintData'
p15
(dp16
s."
AnchorPoint: "bot" 304 0 basechar 0
LayerCount: 2
Fore
SplineSet
448 188 m 256
 448 255 416 274 312 317 c 258
 212 358 l 258
 113 398 57 429 57 529 c 256
 57 680 176 721 303 721 c 256
 397 721 479 686 528 629 c 257
 477 579 l 257
 470 579 l 257
 433 622 371 646 299 646 c 256
 219 646 152 622 152 540 c 256
 152 485 176 467 254 435 c 257
 354 395 l 257
 470 349 538 313 538 187 c 256
 538 39 411 -10 292 -10 c 256
 179 -10 95 34 55 83 c 257
 107 134 l 257
 113 134 l 257
 159 89 227 65 292 65 c 256
 380 65 448 99 448 188 c 256
EndSplineSet
Validated: 1
EndChar

StartChar: T
Encoding: 84 84 98
Width: 561
VWidth: 0
GlyphClass: 2
Flags: HW
PickledData: "(dp1
S'org.pippin.gimp.org.kernagic'
p2
(dp3
S'lstem'
p4
I285
sS'rstem'
p5
I844
ssS'com.typemytype.robofont.layerData'
p6
(dp7
sS'org.robofab.postScriptHintData'
p8
(dp9
s."
AnchorPoint: "bot" 283 0 basechar 0
LayerCount: 2
Fore
SplineSet
3 711 m 257
 558 711 l 257
 558 640 l 257
 328 640 l 257
 328 -0 l 257
 232 -0 l 257
 232 640 l 257
 3 640 l 257
 3 711 l 257
EndSplineSet
Validated: 1
EndChar

StartChar: Thorn
Encoding: 222 222 102
Width: 593
VWidth: 0
GlyphClass: 2
Flags: HW
PickledData: "(dp1
S'org.pippin.gimp.org.kernagic'
p2
(dp3
S'lstem'
p4
I0
sS'rstem'
p5
I0
ssS'com.typemytype.robofont.layerData'
p6
(dp7
S'b'
(dp8
S'name'
p9
S'Thorn'
p10
sS'lib'
p11
(dp12
sS'unicodes'
p13
(tsS'width'
p14
I1192
sS'contours'
p15
(tsS'components'
p16
(tsS'anchors'
p17
(tsssS'org.robofab.postScriptHintData'
p18
(dp19
s."
LayerCount: 2
Fore
SplineSet
93 0 m 257
 93 729 l 257
 188 729 l 257
 188 576 l 257
 276 576 l 258
 420 576 512 536 512 408 c 256
 512 283 450 219 277 219 c 258
 188 219 l 257
 188 0 l 257
 93 0 l 257
188 508 m 257
 188 288 l 257
 273 288 l 258
 383 288 418 317 418 406 c 256
 418 487 370 508 277 508 c 258
 188 508 l 257
EndSplineSet
Validated: 1
EndChar

StartChar: U
Encoding: 85 85 103
Width: 710
VWidth: 0
GlyphClass: 2
Flags: HW
PickledData: "(dp1
S'org.pippin.gimp.org.kernagic'
p2
(dp3
S'lstem'
p4
I0
sS'rstem'
p5
I0
ssS'com.typemytype.robofont.layerData'
p6
(dp7
sS'org.robofab.postScriptHintData'
p8
(dp9
s."
AnchorPoint: "bot" 353 0 basechar 0
LayerCount: 2
Fore
SplineSet
530 711 m 257
 625 711 l 257
 625 263 l 258
 625 104 542 -10 354 -10 c 256
 164 -10 83 102 83 265 c 258
 83 711 l 257
 178 711 l 257
 178 267 l 258
 178 135 226 66 354 66 c 256
 478 66 530 135 530 267 c 258
 530 711 l 257
EndSplineSet
Validated: 1
EndChar

StartChar: V
Encoding: 86 86 114
Width: 704
VWidth: 0
GlyphClass: 2
Flags: HW
PickledData: "(dp1
S'org.pippin.gimp.org.kernagic'
p2
(dp3
S'lstem'
p4
I0
sS'rstem'
p5
I0
ssS'com.typemytype.robofont.layerData'
p6
(dp7
sS'org.robofab.postScriptHintData'
p8
(dp9
s."
LayerCount: 2
Fore
SplineSet
305 -0 m 257
 38 711 l 257
 134 711 l 257
 206 510 280 312 349 108 c 257
 419 311 493 510 565 711 c 257
 667 711 l 257
 392 -0 l 257
 305 -0 l 257
EndSplineSet
Validated: 1
EndChar

StartChar: W
Encoding: 87 87 115
Width: 966
VWidth: 0
GlyphClass: 2
Flags: HW
PickledData: "(dp1
S'org.pippin.gimp.org.kernagic'
p2
(dp3
S'lstem'
p4
I0
sS'rstem'
p5
I0
ssS'com.typemytype.robofont.layerData'
p6
(dp7
sS'org.robofab.postScriptHintData'
p8
(dp9
s."
AnchorPoint: "bot" 486 0 basechar 0
LayerCount: 2
Fore
SplineSet
488 582 m 257
 316 0 l 257
 227 0 l 257
 38 711 l 257
 123 711 l 257
 276 126 l 257
 443 697 l 257
 532 697 l 257
 697 120 l 257
 837 711 l 257
 929 711 l 257
 744 0 l 257
 653 0 l 257
 488 582 l 257
EndSplineSet
Validated: 1
EndChar

StartChar: X
Encoding: 88 88 120
Width: 630
VWidth: 0
GlyphClass: 2
Flags: HW
PickledData: "(dp1
S'org.pippin.gimp.org.kernagic'
p2
(dp3
S'lstem'
p4
I0
sS'rstem'
p5
I0
ssS'com.typemytype.robofont.layerData'
p6
(dp7
sS'org.robofab.postScriptHintData'
p8
(dp9
s."
LayerCount: 2
Fore
SplineSet
366 356 m 257
 604 -0 l 257
 497 -0 l 257
 309 284 l 257
 120 -0 l 257
 22 -0 l 257
 258 360 l 257
 25 711 l 257
 130 711 l 257
 317 431 l 257
 498 711 l 257
 600 711 l 257
 366 356 l 257
EndSplineSet
Validated: 1
EndChar

StartChar: Y
Encoding: 89 89 121
Width: 666
VWidth: 0
GlyphClass: 2
Flags: HW
PickledData: "(dp1
S'org.pippin.gimp.org.kernagic'
p2
(dp3
S'lstem'
p4
I0
sS'rstem'
p5
I0
ssS'com.typemytype.robofont.layerData'
p6
(dp7
sS'org.robofab.postScriptHintData'
p8
(dp9
s."
LayerCount: 2
Fore
SplineSet
381 251 m 257
 381 0 l 257
 287 0 l 257
 287 252 l 257
 37 711 l 257
 127 711 l 257
 333 334 l 257
 534 711 l 257
 629 711 l 257
 381 251 l 257
EndSplineSet
Validated: 1
EndChar

StartChar: Z
Encoding: 90 90 126
Width: 581
VWidth: 0
GlyphClass: 2
Flags: HW
PickledData: "(dp1
S'org.pippin.gimp.org.kernagic'
p2
(dp3
S'lstem'
p4
I0
sS'rstem'
p5
I0
ssS'com.typemytype.robofont.layerData'
p6
(dp7
sS'org.robofab.postScriptHintData'
p8
(dp9
s."
AnchorPoint: "bot" 317 0 basechar 0
LayerCount: 2
Fore
SplineSet
45 0 m 257
 45 65 l 257
 442 640 l 257
 61 640 l 257
 60 711 l 257
 545 711 l 257
 548 646 l 257
 153 71 l 257
 552 71 l 257
 549 0 l 257
 45 0 l 257
EndSplineSet
Validated: 1
EndChar

StartChar: a
Encoding: 97 97 130
Width: 546
VWidth: 0
GlyphClass: 2
Flags: HW
PickledData: "(dp1
S'org.pippin.gimp.org.kernagic'
p2
(dp3
S'lstem'
p4
I0
sS'rstem'
p5
I0
ssS'org.robofab.postScriptHintData'
p6
(dp7
sS'com.typemytype.robofont.guides'
p8
(tsS'com.typemytype.robofont.layerData'
p9
(dp10
sS'com.fontlab.hintData'
p11
(dp12
S'vhints'
p13
((dp14
S'position'
p15
I126
sS'width'
p16
I120
s(dp17
g15
I842
sg16
I32
s(dp18
g15
I875
sg16
I86
stp19
sS'hhints'
p20
((dp21
g15
I-15
sg16
I92
s(dp22
g15
I535
sg16
I82
s(dp23
g15
I983
sg16
I92
stp24
ss."
HStem: -7 45 261 40 480 45
VStem: 62 59 411 16 427 42
AnchorPoint: "bot" 243 0 basechar 0
LayerCount: 2
Fore
SplineSet
239 53 m 256
 301 53 352 82 385 124 c 257
 385 234 l 257
 282 235 l 258
 174 235 140 204 140 143 c 256
 140 77 183 53 239 53 c 256
55 144 m 256
 55 238 120 292 266 292 c 258
 271 292 l 257
 385 291 l 257
 385 352 l 258
 385 437 346 473 269 473 c 256
 219 473 150 457 100 423 c 257
 74 490 l 257
 127 524 201 540 271 540 c 256
 390 540 473 487 473 344 c 258
 473 0 l 257
 399 0 l 257
 393 65 l 257
 351 15 298 -10 226 -10 c 256
 125 -10 55 41 55 144 c 256
EndSplineSet
Validated: 8388609
Substitution2: "Single Substitution lookup 3 subtable" ordfeminine
EndChar

StartChar: acute
Encoding: 180 180 134
Width: 357
VWidth: 0
GlyphClass: 4
Flags: HW
PickledData: "(dp1
S'org.robofab.postScriptHintData'
p2
(dp3
sS'com.typemytype.robofont.layerData'
p4
(dp5
s."
LayerCount: 2
Fore
SplineSet
143 590 m 257
 238 774 l 257
 347 774 l 257
 201 590 l 257
 143 590 l 257
EndSplineSet
Validated: 1
EndChar

StartChar: ae
Encoding: 230 230 136
Width: 809
VWidth: 0
GlyphClass: 2
Flags: HW
PickledData: "(dp1
S'org.pippin.gimp.org.kernagic'
p2
(dp3
S'lstem'
p4
I0
sS'rstem'
p5
I0
ssS'com.fontlab.hintData'
p6
(dp7
S'vhints'
p8
((dp9
S'position'
p10
I126
sS'width'
p11
I119
s(dp12
g10
I817
sg11
I117
s(dp13
g10
I817
sg11
I82
s(dp14
g10
I1556
sg11
I98
stp15
sS'hhints'
p16
((dp17
g10
I-14
sg11
I98
s(dp18
g10
I518
sg11
I82
s(dp19
g10
I983
sg11
I92
stp20
ssS'com.typemytype.robofont.layerData'
p21
(dp22
sS'org.robofab.postScriptHintData'
p23
(dp24
s."
HStem: -7 48 253 40 480 45
VStem: 62 58 399 57 399 40 760 48
LayerCount: 2
Fore
SplineSet
594 473 m 256
 505 473 451 415 444 296 c 257
 482 293 514 292 541 292 c 256
 680 292 696 329 696 370 c 256
 696 427 670 473 594 473 c 256
360 174 m 256
 360 176 360 241 360 242 c 256
 322 246 267 249 246 249 c 256
 139 249 114 204 114 144 c 256
 114 75 170 53 214 53 c 256
 297 53 357 96 360 174 c 256
775 378 m 256
 775 256 683 230 557 230 c 256
 521 230 483 233 443 235 c 257
 452 102 518 56 610 56 c 256
 672 56 711 76 754 101 c 257
 780 42 l 257
 736 12 673 -10 599 -10 c 256
 509 -10 440 28 403 100 c 257
 360 17 272 -10 188 -10 c 257
 94 -6 30 45 30 144 c 256
 30 239 84 306 235 306 c 256
 258 306 320 304 360 299 c 257
 360 350 l 258
 360 439 325 471 248 471 c 256
 199 471 135 458 74 418 c 257
 40 475 l 257
 102 517 163 538 246 538 c 256
 332 538 393 512 415 439 c 257
 454 510 517 538 592 538 c 256
 712 538 775 467 775 378 c 256
EndSplineSet
Validated: 8388609
EndChar

StartChar: ampersand
Encoding: 38 38 141
Width: 693
VWidth: 0
GlyphClass: 2
Flags: HW
PickledData: "(dp1
S'org.pippin.gimp.org.kernagic'
p2
(dp3
S'lstem'
p4
I0
sS'rstem'
p5
I0
ssS'com.fontlab.hintData'
p6
(dp7
S'vhints'
p8
((dp9
S'position'
p10
I135
sS'width'
p11
I121
s(dp12
g10
I312
sg11
I105
s(dp13
g10
I917
sg11
I110
stp14
sS'hhints'
p15
((dp16
g10
I-19
sg11
I96
s(dp17
g10
I1372
sg11
I96
stp18
ssS'com.typemytype.robofont.layerData'
p19
(dp20
sS'org.robofab.postScriptHintData'
p21
(dp22
s."
HStem: -9 47 670 47
VStem: 66 59 152 51 448 54
LayerCount: 2
Fore
SplineSet
293 661 m 256
 231 661 184 623 184 567 c 256
 184 521 201 483 256 419 c 257
 325 456 390 495 390 569 c 256
 390 627 356 661 293 661 c 256
46 192 m 256
 46 293 102 341 193 387 c 257
 131 451 108 505 108 566 c 256
 108 661 186 724 293 724 c 256
 392 724 467 671 467 571 c 256
 467 467 381 418 297 373 c 257
 487 185 l 257
 521 231 558 291 600 372 c 257
 654 336 l 257
 626 280 591 203 538 135 c 257
 634 39 l 257
 587 -11 l 257
 492 83 l 257
 436 29 364 -10 269 -10 c 256
 132 -10 46 73 46 192 c 256
281 60 m 256
 341 60 390 78 443 132 c 257
 235 339 l 257
 168 303 128 265 128 196 c 256
 128 111 184 60 281 60 c 256
EndSplineSet
Validated: 1
EndChar

StartChar: uni02BC
Encoding: 700 700 143
Width: 314
VWidth: 0
GlyphClass: 2
Flags: HW
PickledData: "(dp1
S'org.robofab.postScriptHintData'
p2
(dp3
sS'com.typemytype.robofont.layerData'
p4
(dp5
s."
LayerCount: 2
Fore
SplineSet
56 563 m 257
 56 563 86 755 88 777 c 257
 180 777 l 257
 172 734 125 563 125 563 c 257
 56 563 l 257
EndSplineSet
Validated: 1
EndChar

StartChar: approxequal
Encoding: 8776 8776 144
Width: 562
VWidth: 0
GlyphClass: 2
Flags: HW
PickledData: "(dp1
S'org.pippin.gimp.org.kernagic'
p2
(dp3
S'lstem'
p4
I0
sS'rstem'
p5
I0
ssS'com.typemytype.robofont.layerData'
p6
(dp7
S'b'
(dp8
S'name'
p9
S'approxequal'
p10
sS'lib'
p11
(dp12
sS'unicodes'
p13
(tsS'width'
p14
I1136
sS'contours'
p15
(tsS'components'
p16
(tsS'anchors'
p17
(tsssS'org.robofab.postScriptHintData'
p18
(dp19
s."
LayerCount: 2
Fore
SplineSet
65 209 m 257
 40 255 l 257
 61 312 104 356 169 356 c 256
 208 356 237 345 286 322 c 256
 331 302 369 283 398 283 c 256
 437 283 475 316 494 360 c 257
 521 318 l 257
 498 255 460 216 397 216 c 256
 362 216 326 230 284 250 c 256
 236 271 201 289 168 289 c 256
 125 289 86 253 65 209 c 257
65 375 m 257
 40 421 l 257
 61 478 104 521 169 521 c 256
 208 521 237 509 286 487 c 256
 331 467 369 448 398 448 c 256
 437 448 475 482 494 525 c 257
 521 483 l 257
 498 421 460 381 397 381 c 256
 362 381 326 396 284 416 c 256
 236 437 201 454 168 454 c 256
 125 454 86 419 65 375 c 257
EndSplineSet
Validated: 1
EndChar

StartChar: asciicircum
Encoding: 94 94 147
Width: 632
VWidth: 0
GlyphClass: 2
Flags: HW
PickledData: "(dp1
S'org.pippin.gimp.org.kernagic'
p2
(dp3
S'lstem'
p4
I0
sS'rstem'
p5
I0
ssS'com.typemytype.robofont.layerData'
p6
(dp7
sS'org.robofab.postScriptHintData'
p8
(dp9
s."
LayerCount: 2
Fore
SplineSet
295 711 m 257
 336 711 l 257
 588 145 l 257
 500 145 l 257
 316 571 l 257
 132 145 l 257
 45 145 l 257
 295 711 l 257
EndSplineSet
Validated: 1
EndChar

StartChar: asciitilde
Encoding: 126 126 148
Width: 582
VWidth: 0
GlyphClass: 2
Flags: HW
PickledData: "(dp1
S'org.pippin.gimp.org.kernagic'
p2
(dp3
S'lstem'
p4
I0
sS'rstem'
p5
I0
ssS'com.typemytype.robofont.layerData'
p6
(dp7
S'b'
(dp8
S'name'
p9
S'asciitilde'
p10
sS'lib'
p11
(dp12
sS'unicodes'
p13
(tsS'width'
p14
I1192
sS'contours'
p15
(tsS'components'
p16
(tsS'anchors'
p17
(tsssS'org.robofab.postScriptHintData'
p18
(dp19
s."
LayerCount: 2
Fore
SplineSet
174 317 m 256
 131 317 92 281 70 239 c 257
 48 289 l 257
 70 343 113 385 176 385 c 256
 215 385 244 373 292 352 c 256
 338 332 376 313 405 313 c 256
 445 313 482 348 503 390 c 257
 528 343 l 257
 504 284 464 246 403 246 c 256
 336 246 233 317 174 317 c 256
EndSplineSet
Validated: 1
EndChar

StartChar: asterisk
Encoding: 42 42 149
Width: 462
VWidth: 0
GlyphClass: 2
Flags: HW
PickledData: "(dp1
S'org.pippin.gimp.org.kernagic'
p2
(dp3
S'lstem'
p4
I0
sS'rstem'
p5
I0
ssS'com.typemytype.robofont.layerData'
p6
(dp7
sS'org.robofab.postScriptHintData'
p8
(dp9
s."
LayerCount: 2
Fore
SplineSet
144 287 m 257
 76 329 l 257
 189 481 l 257
 22 519 l 257
 44 595 l 257
 208 526 l 257
 192 714 l 257
 274 714 l 257
 256 526 l 257
 422 595 l 257
 443 519 l 257
 275 481 l 257
 294 456 350 381 391 329 c 257
 366 313 349 303 324 287 c 257
 230 452 l 257
 144 287 l 257
EndSplineSet
Validated: 1
EndChar

StartChar: at
Encoding: 64 64 150
Width: 947
VWidth: 0
GlyphClass: 2
Flags: HW
PickledData: "(dp1
S'org.pippin.gimp.org.kernagic'
p2
(dp3
S'lstem'
p4
I0
sS'rstem'
p5
I0
ssS'com.typemytype.robofont.layerData'
p6
(dp7
sS'org.robofab.postScriptHintData'
p8
(dp9
s."
LayerCount: 2
Fore
SplineSet
439 165 m 256
 512 165 535 240 551 340 c 257
 572 465 l 257
 551 470 520 474 506 474 c 256
 418 474 356 392 356 283 c 256
 356 211 380 165 439 165 c 256
462 -95 m 256
 232 -95 72 54 72 300 c 256
 72 544 251 726 495 726 c 256
 706 726 868 587 868 368 c 256
 868 196 770 108 685 108 c 257
 653 136 583 149 568 213 c 257
 544 158 499 105 431 105 c 256
 336 105 283 182 283 280 c 256
 283 403 358 529 498 529 c 256
 547 529 612 513 654 492 c 257
 640 391 622 300 622 238 c 256
 622 198 650 169 685 169 c 256
 741 169 801 238 801 372 c 256
 801 535 699 664 491 664 c 256
 280 664 147 503 147 298 c 256
 147 103 260 -32 463 -32 c 256
 544 -32 627 -17 693 25 c 257
 714 -28 l 257
 652 -71 556 -95 462 -95 c 256
EndSplineSet
Validated: 1
EndChar

StartChar: b
Encoding: 98 98 152
Width: 595
VWidth: 0
GlyphClass: 2
Flags: HW
PickledData: "(dp1
S'org.pippin.gimp.org.kernagic'
p2
(dp3
S'lstem'
p4
I0
sS'rstem'
p5
I0
ssS'org.robofab.postScriptHintData'
p6
(dp7
sS'com.typemytype.robofont.guides'
p8
(tsS'com.typemytype.robofont.layerData'
p9
(dp10
sS'com.fontlab.hintData'
p11
(dp12
S'vhints'
p13
((dp14
S'position'
p15
I193
sS'width'
p16
I125
s(dp17
g15
I193
sg16
I94
s(dp18
g15
I1018
sg16
I122
stp19
sS'hhints'
p20
((dp21
g15
I-19
sg16
I92
s(dp22
g15
I982
sg16
I92
stp23
ss."
HStem: -9 45 479 45
VStem: 94 61 94 46 497 60
LayerCount: 2
Fore
SplineSet
308 56 m 256
 405 56 447 137 447 265 c 256
 447 387 416 474 317 474 c 256
 212 474 167 395 167 273 c 258
 167 122 l 257
 199 78 250 56 308 56 c 256
330 540 m 256
 474 540 538 425 538 265 c 256
 538 100 457 -10 313 -10 c 256
 244 -10 192 18 160 56 c 257
 154 0 l 257
 82 0 l 257
 82 752 l 257
 171 762 l 257
 171 542 l 257
 167 431 l 257
 203 518 269 540 330 540 c 256
EndSplineSet
Validated: 8388609
EndChar

StartChar: backslash
Encoding: 92 92 153
Width: 457
VWidth: 0
GlyphClass: 2
Flags: HW
PickledData: "(dp1
S'org.pippin.gimp.org.kernagic'
p2
(dp3
S'lstem'
p4
I0
sS'rstem'
p5
I0
ssS'com.typemytype.robofont.layerData'
p6
(dp7
S'b'
(dp8
S'name'
p9
S'backslash'
p10
sS'lib'
p11
(dp12
sS'unicodes'
p13
(tsS'width'
p14
I937
sS'contours'
p15
(tsS'components'
p16
(tsS'anchors'
p17
(tsssS'org.robofab.postScriptHintData'
p18
(dp19
s."
LayerCount: 2
Fore
SplineSet
310 -8 m 257
 47 722 l 257
 117 722 l 257
 379 -8 l 257
 310 -8 l 257
EndSplineSet
Validated: 1
EndChar

StartChar: bar
Encoding: 124 124 154
Width: 334
VWidth: 0
GlyphClass: 2
Flags: HW
PickledData: "(dp1
S'org.pippin.gimp.org.kernagic'
p2
(dp3
S'lstem'
p4
I0
sS'rstem'
p5
I0
ssS'com.typemytype.robofont.layerData'
p6
(dp7
S'b'
(dp8
S'name'
p9
S'bar'
p10
sS'lib'
p11
(dp12
sS'unicodes'
p13
(tsS'width'
p14
I681
sS'contours'
p15
(tsS'components'
p16
(tsS'anchors'
p17
(tsssS'org.robofab.postScriptHintData'
p18
(dp19
s."
LayerCount: 2
Fore
SplineSet
128 721 m 257
 202 721 l 257
 202 -136 l 257
 128 -136 l 257
 128 721 l 257
EndSplineSet
Validated: 1
EndChar

StartChar: braceleft
Encoding: 123 123 155
Width: 420
VWidth: 0
GlyphClass: 2
Flags: HW
PickledData: "(dp1
S'org.pippin.gimp.org.kernagic'
p2
(dp3
S'lstem'
p4
I0
sS'rstem'
p5
I0
ssS'com.typemytype.robofont.layerData'
p6
(dp7
sS'org.robofab.postScriptHintData'
p8
(dp9
s."
LayerCount: 2
Fore
SplineSet
358 -128 m 257
 214 -128 191 -103 191 38 c 258
 191 125 l 258
 191 230 192 263 94 263 c 257
 94 335 l 257
 191 335 191 368 191 473 c 258
 191 560 l 258
 191 701 214 726 358 726 c 257
 358 664 l 257
 285 664 280 649 280 551 c 258
 280 433 l 258
 280 350 260 312 184 299 c 257
 260 286 280 249 280 165 c 258
 280 47 l 258
 280 -52 285 -65 358 -65 c 257
 358 -128 l 257
EndSplineSet
Validated: 33
EndChar

StartChar: braceright
Encoding: 125 125 156
Width: 420
VWidth: 0
GlyphClass: 2
Flags: HW
PickledData: "(dp1
S'org.pippin.gimp.org.kernagic'
p2
(dp3
S'lstem'
p4
I0
sS'rstem'
p5
I0
ssS'com.typemytype.robofont.layerData'
p6
(dp7
sS'org.robofab.postScriptHintData'
p8
(dp9
s."
LayerCount: 2
Fore
SplineSet
62 -128 m 257
 62 -65 l 257
 135 -65 140 -52 140 47 c 258
 140 165 l 258
 140 249 160 286 236 299 c 257
 160 312 140 350 140 433 c 258
 140 551 l 258
 140 649 135 664 62 664 c 257
 62 726 l 257
 206 726 229 701 229 560 c 258
 229 473 l 258
 229 368 230 335 327 335 c 257
 327 263 l 257
 229 263 229 230 229 125 c 258
 229 38 l 258
 229 -103 206 -128 62 -128 c 257
EndSplineSet
Validated: 1
EndChar

StartChar: bracketleft
Encoding: 91 91 157
Width: 401
VWidth: 0
GlyphClass: 2
Flags: HW
PickledData: "(dp1
S'org.pippin.gimp.org.kernagic'
p2
(dp3
S'lstem'
p4
I0
sS'rstem'
p5
I0
ssS'com.typemytype.robofont.layerData'
p6
(dp7
sS'org.robofab.postScriptHintData'
p8
(dp9
s."
LayerCount: 2
Fore
SplineSet
106 -125 m 257
 106 721 l 257
 332 721 l 257
 332 658 l 257
 196 658 l 257
 196 -62 l 257
 332 -62 l 257
 332 -125 l 257
 106 -125 l 257
EndSplineSet
Validated: 1
EndChar

StartChar: bracketright
Encoding: 93 93 158
Width: 471
VWidth: 0
GlyphClass: 2
Flags: HW
PickledData: "(dp1
S'org.pippin.gimp.org.kernagic'
p2
(dp3
S'lstem'
p4
I0
sS'rstem'
p5
I0
ssS'com.typemytype.robofont.layerData'
p6
(dp7
sS'org.robofab.postScriptHintData'
p8
(dp9
s."
LayerCount: 2
Fore
SplineSet
141 -125 m 257
 141 -62 l 257
 277 -62 l 257
 277 658 l 257
 141 658 l 257
 141 721 l 257
 366 721 l 257
 366 -125 l 257
 141 -125 l 257
EndSplineSet
Validated: 1
EndChar

StartChar: breve
Encoding: 728 728 159
Width: 426
VWidth: 0
GlyphClass: 4
Flags: HW
PickledData: "(dp1
S'org.robofab.postScriptHintData'
p2
(dp3
sS'com.typemytype.robofont.layerData'
p4
(dp5
s."
LayerCount: 2
Fore
SplineSet
207 629 m 256
 140 629 87 667 87 748 c 257
 145 748 l 257
 145 704 176 684 207 684 c 256
 238 684 271 704 271 748 c 257
 327 748 l 257
 327 667 275 629 207 629 c 256
EndSplineSet
Validated: 1
EndChar

StartChar: uni0311
Encoding: 785 785 160
Width: 389
VWidth: 0
GlyphClass: 4
Flags: HW
PickledData: "(dp1
S'org.robofab.postScriptHintData'
p2
(dp3
sS'com.typemytype.robofont.layerData'
p4
(dp5
s."
LayerCount: 2
Fore
SplineSet
80 629 m 257
 80 710 132 748 199 748 c 256
 266 748 319 709 319 629 c 257
 263 629 l 257
 263 673 230 693 199 693 c 256
 168 693 137 673 137 629 c 257
 80 629 l 257
EndSplineSet
Validated: 1
EndChar

StartChar: brokenbar
Encoding: 166 166 161
Width: 323
VWidth: 0
GlyphClass: 2
Flags: HW
PickledData: "(dp1
S'org.pippin.gimp.org.kernagic'
p2
(dp3
S'lstem'
p4
I0
sS'rstem'
p5
I0
ssS'com.typemytype.robofont.layerData'
p6
(dp7
S'b'
(dp8
S'name'
p9
S'brokenbar'
p10
sS'lib'
p11
(dp12
sS'unicodes'
p13
(tsS'width'
p14
I653
sS'contours'
p15
(tsS'components'
p16
(tsS'anchors'
p17
(tsssS'org.robofab.postScriptHintData'
p18
(dp19
s."
LayerCount: 2
Fore
SplineSet
130 767 m 257
 195 767 l 257
 195 400 l 257
 130 400 l 257
 130 767 l 257
130 259 m 257
 195 259 l 257
 195 -110 l 257
 130 -110 l 257
 130 259 l 257
EndSplineSet
Validated: 1
EndChar

StartChar: bullet
Encoding: 8226 8226 162
Width: 445
VWidth: 0
GlyphClass: 2
Flags: HW
PickledData: "(dp1
S'org.pippin.gimp.org.kernagic'
p2
(dp3
S'lstem'
p4
I0
sS'rstem'
p5
I0
ssS'com.typemytype.robofont.layerData'
p6
(dp7
S'b'
(dp8
S'name'
p9
S'bullet'
p10
sS'lib'
p11
(dp12
sS'unicodes'
p13
(tsS'width'
p14
I908
sS'contours'
p15
(tsS'components'
p16
(tsS'anchors'
p17
(tsssS'org.robofab.postScriptHintData'
p18
(dp19
s."
LayerCount: 2
Fore
SplineSet
217 199 m 256
 135 199 63 257 63 359 c 256
 63 462 137 523 220 523 c 256
 302 523 375 464 375 362 c 256
 375 259 300 199 217 199 c 256
EndSplineSet
Validated: 1
EndChar

StartChar: c
Encoding: 99 99 163
Width: 532
VWidth: 0
GlyphClass: 2
Flags: HW
PickledData: "(dp1
S'org.pippin.gimp.org.kernagic'
p2
(dp3
S'lstem'
p4
I0
sS'rstem'
p5
I696
ssS'org.robofab.postScriptHintData'
p6
(dp7
sS'com.typemytype.robofont.guides'
p8
((dp9
S'y'
I417
sS'x'
I962
sS'magnetic'
p10
I5
sS'angle'
p11
F90
sS'isGlobal'
p12
I00
s(dp13
S'y'
I1020
sS'x'
I565
sg10
I5
sg11
F90
sg12
I00
s(dp14
S'y'
I994
sS'x'
I572
sg10
I5
sg11
F90
sg12
I00
stp15
sS'com.typemytype.robofont.layerData'
p16
(dp17
sS'com.fontlab.hintData'
p18
(dp19
S'vhints'
p20
((dp21
S'position'
p22
I128
sS'width'
p23
I120
stp24
sS'hhints'
p25
((dp26
g22
I-19
sg23
I92
s(dp27
g22
I982
sg23
I92
stp28
ss."
HStem: -9 45 479 45
VStem: 62 59
AnchorPoint: "bot" 296 0 basechar 0
LayerCount: 2
Fore
SplineSet
426 133 m 257
 433 133 l 257
 488 103 l 257
 466 49 414 -10 298 -10 c 256
 151 -10 58 97 58 265 c 256
 58 433 151 540 298 540 c 256
 414 540 465 482 488 428 c 257
 433 396 l 257
 427 396 l 257
 403 440 368 473 302 473 c 256
 201 473 149 396 149 265 c 256
 149 135 200 57 301 57 c 258
 302 57 l 258
 368 57 402 89 426 133 c 257
EndSplineSet
Validated: 1
EndChar

StartChar: caron
Encoding: 711 711 165
Width: 438
VWidth: 0
GlyphClass: 4
Flags: HW
PickledData: "(dp1
S'org.robofab.postScriptHintData'
p2
(dp3
sS'com.typemytype.robofont.layerData'
p4
(dp5
s."
LayerCount: 2
Fore
SplineSet
163 604 m 257
 67 774 l 257
 144 774 l 257
 210 662 l 257
 276 774 l 257
 353 774 l 257
 257 604 l 257
 163 604 l 257
EndSplineSet
Validated: 1
EndChar

StartChar: caron.alt
Encoding: 65536 -1 166
Width: 358
VWidth: 0
GlyphClass: 4
Flags: HW
PickledData: "(dp1
S'org.robofab.postScriptHintData'
p2
(dp3
sS'com.typemytype.robofont.layerData'
p4
(dp5
s."
AnchorPoint: "caron.alt" 105 528 mark 0
LayerCount: 2
Fore
SplineSet
226 566 m 257
 243 753 l 257
 330 753 l 257
 291 566 l 257
 226 566 l 257
EndSplineSet
Validated: 1
EndChar

StartChar: cedilla
Encoding: 184 184 171
Width: 334
VWidth: 0
GlyphClass: 4
Flags: HW
PickledData: "(dp1
S'org.robofab.postScriptHintData'
p2
(dp3
sS'com.typemytype.robofont.layerData'
p4
(dp5
s."
AnchorPoint: "bot" 196 5 mark 0
LayerCount: 2
Fore
SplineSet
173 -196 m 256
 146 -196 120 -191 96 -180 c 257
 111 -139 l 257
 131 -148 151 -152 170 -152 c 256
 210 -152 242 -133 242 -96 c 256
 242 -75 231 -52 189 -52 c 256
 181 -52 172 -53 162 -55 c 257
 162 -29 l 257
 180 -22 197 -20 213 -20 c 256
 259 -20 295 -46 295 -99 c 256
 295 -159 243 -196 173 -196 c 256
EndSplineSet
Validated: 1
EndChar

StartChar: cent
Encoding: 162 162 172
Width: 525
VWidth: 0
GlyphClass: 2
Flags: HW
PickledData: "(dp1
S'org.pippin.gimp.org.kernagic'
p2
(dp3
S'lstem'
p4
I0
sS'rstem'
p5
I0
ssS'com.typemytype.robofont.layerData'
p6
(dp7
sS'org.robofab.postScriptHintData'
p8
(dp9
s."
LayerCount: 2
Fore
SplineSet
263 17 m 257
 329 17 l 257
 320 -151 l 257
 263 -151 l 257
 263 17 l 257
269 678 m 257
 324 678 l 257
 323 518 l 257
 263 518 l 257
 269 678 l 257
EndSplineSet
Refer: 163 99 N 1 0 0 1 0 0 2
Validated: 5
EndChar

StartChar: circumflex
Encoding: 710 710 173
Width: 432
VWidth: 0
GlyphClass: 4
Flags: HW
PickledData: "(dp1
S'org.robofab.postScriptHintData'
p2
(dp3
sS'com.typemytype.robofont.layerData'
p4
(dp5
s."
LayerCount: 2
Fore
SplineSet
66 611 m 257
 163 780 l 257
 257 780 l 257
 353 611 l 257
 276 611 l 257
 210 723 l 257
 143 611 l 257
 66 611 l 257
EndSplineSet
Validated: 1
EndChar

StartChar: colon
Encoding: 58 58 174
Width: 321
VWidth: 0
GlyphClass: 2
Flags: HW
PickledData: "(dp1
S'org.pippin.gimp.org.kernagic'
p2
(dp3
S'lstem'
p4
I0
sS'rstem'
p5
I0
ssS'com.typemytype.robofont.layerData'
p6
(dp7
S'b'
(dp8
S'name'
p9
S'colon'
p10
sS'lib'
p11
(dp12
sS'unicodes'
p13
(tsS'width'
p14
I653
sS'contours'
p15
(tsS'components'
p16
(tsS'anchors'
p17
(tsssS'org.robofab.postScriptHintData'
p18
(dp19
s."
LayerCount: 2
Fore
SplineSet
159 -5 m 256
 118 -5 98 25 98 57 c 256
 98 89 118 119 159 119 c 256
 200 119 219 89 219 57 c 256
 219 25 200 -5 159 -5 c 256
159 407 m 256
 118 407 98 436 98 468 c 256
 98 500 118 530 159 530 c 256
 200 530 219 500 219 468 c 256
 219 436 200 407 159 407 c 256
EndSplineSet
Validated: 1
EndChar

StartChar: comma
Encoding: 44 44 175
Width: 307
VWidth: 0
GlyphClass: 2
Flags: HW
PickledData: "(dp1
S'org.pippin.gimp.org.kernagic'
p2
(dp3
S'lstem'
p4
I0
sS'rstem'
p5
I0
ssS'com.typemytype.robofont.layerData'
p6
(dp7
sS'org.robofab.postScriptHintData'
p8
(dp9
s."
LayerCount: 2
Fore
SplineSet
94 -149 m 257
 94 -149 114 114 114 117 c 257
 204 117 l 257
 204 72 l 257
 146 -149 l 257
 94 -149 l 257
EndSplineSet
Validated: 1
EndChar

StartChar: uni0326
Encoding: 806 806 176
Width: 298
VWidth: 0
GlyphClass: 4
Flags: HW
PickledData: "(dp1
S'org.robofab.postScriptHintData'
p2
(dp3
s."
AnchorPoint: "bot" 161 0 mark 0
LayerCount: 2
Fore
SplineSet
95 -255 m 257
 95 -255 118 -99 118 -65 c 257
 203 -65 l 257
 203 -86 154 -255 154 -255 c 257
 95 -255 l 257
EndSplineSet
Validated: 1
EndChar

StartChar: uni0312
Encoding: 786 786 177
Width: 292
VWidth: 0
GlyphClass: 4
Flags: HW
PickledData: "(dp1
S'org.robofab.postScriptHintData'
p2
(dp3
s."
LayerCount: 2
Fore
SplineSet
97 637 m 257
 97 657 148 871 148 871 c 257
 207 871 l 257
 207 871 191 660 191 626 c 257
 95 626 l 257
 97 637 l 257
EndSplineSet
Validated: 1
EndChar

StartChar: copyright
Encoding: 169 169 178
Width: 835
VWidth: 0
GlyphClass: 2
Flags: HW
PickledData: "(dp1
S'org.pippin.gimp.org.kernagic'
p2
(dp3
S'lstem'
p4
I0
sS'rstem'
p5
I0
ssS'com.typemytype.robofont.layerData'
p6
(dp7
sS'org.robofab.postScriptHintData'
p8
(dp9
s."
LayerCount: 2
Fore
SplineSet
374 -11 m 256
 187 -11 5 118 5 355 c 256
 5 594 187 722 374 722 c 256
 562 722 749 594 749 355 c 256
 749 118 563 -11 374 -11 c 256
374 33 m 256
 538 33 694 148 694 355 c 256
 694 563 538 677 374 677 c 256
 211 677 56 563 56 355 c 256
 56 147 211 33 374 33 c 256
383 115 m 256
 258 115 150 211 150 354 c 256
 150 493 255 594 380 594 c 256
 430 594 478 579 521 551 c 257
 499 507 l 257
 463 532 418 544 382 544 c 256
 289 544 213 468 213 356 c 256
 213 236 290 164 386 164 c 256
 425 164 462 173 504 198 c 257
 522 155 l 257
 480 129 432 115 383 115 c 256
EndSplineSet
Validated: 1
EndChar

StartChar: currency
Encoding: 164 164 179
Width: 565
VWidth: 0
GlyphClass: 2
Flags: HW
PickledData: "(dp1
S'org.pippin.gimp.org.kernagic'
p2
(dp3
S'lstem'
p4
I0
sS'rstem'
p5
I0
ssS'com.typemytype.robofont.layerData'
p6
(dp7
S'b'
(dp8
S'name'
p9
S'currency'
p10
sS'lib'
p11
(dp12
sS'unicodes'
p13
(tsS'width'
p14
I1164
sS'contours'
p15
(tsS'components'
p16
(tsS'anchors'
p17
(tsssS'org.robofab.postScriptHintData'
p18
(dp19
s."
LayerCount: 2
Fore
SplineSet
428 352 m 256
 428 435 370 507 281 507 c 256
 192 507 134 435 134 352 c 256
 134 269 192 198 281 198 c 256
 371 198 428 269 428 352 c 256
407 509 m 257
 495 594 l 257
 527 560 l 257
 439 474 l 257
 465 437 478 395 478 352 c 256
 478 307 464 266 439 231 c 257
 526 145 l 257
 495 110 l 257
 407 195 l 257
 372 167 329 150 281 150 c 256
 233 150 190 166 155 195 c 257
 68 110 l 257
 35 145 l 257
 123 231 l 257
 98 266 84 308 84 352 c 256
 84 396 97 438 123 474 c 257
 35 561 l 257
 68 594 l 257
 155 510 l 257
 190 539 234 555 281 555 c 256
 328 555 372 538 407 509 c 257
EndSplineSet
Validated: 1
EndChar

StartChar: d
Encoding: 100 100 180
Width: 601
VWidth: 0
GlyphClass: 2
Flags: HW
PickledData: "(dp1
S'org.pippin.gimp.org.kernagic'
p2
(dp3
S'lstem'
p4
I0
sS'rstem'
p5
I0
ssS'com.fontlab.hintData'
p6
(dp7
S'vhints'
p8
((dp9
S'position'
p10
I114
sS'width'
p11
I166
s(dp12
g10
I907
sg11
I161
s(dp13
g10
I930
sg11
I138
stp14
sS'hhints'
p15
((dp16
g10
I-19
sg11
I127
s(dp17
g10
I953
sg11
I127
stp18
ssS'com.typemytype.robofont.layerData'
p19
(dp20
sS'org.robofab.postScriptHintData'
p21
(dp22
s."
HStem: -9 62 465 62
VStem: 56 81 443 79 454 67
AnchorPoint: "caron.alt" 557 586 basechar 0
LayerCount: 2
Fore
SplineSet
294 56 m 256
 349 56 397 74 428 112 c 257
 428 413 l 257
 401 453 351 474 294 474 c 256
 197 474 149 397 149 267 c 256
 149 134 195 56 294 56 c 256
285 -10 m 256
 137 -10 58 103 58 266 c 256
 58 431 143 539 285 539 c 258
 288 539 l 257
 292 539 l 258
 353 539 398 516 428 484 c 257
 425 563 l 257
 425 752 l 257
 517 762 l 257
 517 0 l 257
 440 0 l 257
 436 58 l 257
 397 13 338 -10 285 -10 c 256
EndSplineSet
Validated: 8388609
EndChar

StartChar: dagger
Encoding: 8224 8224 181
Width: 517
VWidth: 0
GlyphClass: 2
Flags: HW
PickledData: "(dp1
S'org.pippin.gimp.org.kernagic'
p2
(dp3
S'lstem'
p4
I0
sS'rstem'
p5
I0
ssS'com.typemytype.robofont.layerData'
p6
(dp7
S'b'
(dp8
S'name'
p9
S'dagger'
p10
sS'lib'
p11
(dp12
sS'unicodes'
p13
(tsS'width'
p14
I1050
sS'contours'
p15
(tsS'components'
p16
(tsS'anchors'
p17
(tsssS'org.robofab.postScriptHintData'
p18
(dp19
s."
LayerCount: 2
Fore
SplineSet
225 728 m 257
 288 728 l 257
 288 542 l 257
 432 542 l 257
 432 487 l 257
 288 487 l 257
 288 47 l 257
 225 47 l 257
 225 487 l 257
 84 487 l 257
 84 542 l 257
 225 542 l 257
 225 728 l 257
EndSplineSet
Validated: 1
EndChar

StartChar: daggerdbl
Encoding: 8225 8225 182
Width: 503
VWidth: 0
GlyphClass: 2
Flags: HW
PickledData: "(dp1
S'org.pippin.gimp.org.kernagic'
p2
(dp3
S'lstem'
p4
I0
sS'rstem'
p5
I0
ssS'com.typemytype.robofont.layerData'
p6
(dp7
S'b'
(dp8
S'name'
p9
S'daggerdbl'
p10
sS'lib'
p11
(dp12
sS'unicodes'
p13
(tsS'width'
p14
I1022
sS'contours'
p15
(tsS'components'
p16
(tsS'anchors'
p17
(tsssS'org.robofab.postScriptHintData'
p18
(dp19
s."
LayerCount: 2
Fore
SplineSet
224 719 m 257
 286 719 l 257
 286 532 l 257
 422 532 l 257
 422 479 l 257
 288 479 l 257
 288 268 l 257
 422 268 l 257
 422 217 l 257
 287 217 l 257
 287 28 l 257
 224 28 l 257
 224 217 l 257
 87 217 l 257
 87 268 l 257
 224 268 l 257
 224 479 l 257
 87 479 l 257
 87 532 l 257
 224 532 l 257
 224 719 l 257
EndSplineSet
Validated: 1
EndChar

StartChar: uni030F
Encoding: 783 783 183
Width: 434
VWidth: 0
GlyphClass: 4
Flags: HW
PickledData: "(dp1
S'org.robofab.postScriptHintData'
p2
(dp3
sS'com.typemytype.robofont.layerData'
p4
(dp5
s."
LayerCount: 2
Fore
SplineSet
273 609 m 257
 182 780 l 257
 264 780 l 257
 328 609 l 257
 273 609 l 257
139 609 m 257
 29 780 l 257
 119 780 l 257
 192 609 l 257
 139 609 l 257
EndSplineSet
Validated: 1
EndChar

StartChar: degree
Encoding: 176 176 186
Width: 427
VWidth: 0
GlyphClass: 2
Flags: HW
PickledData: "(dp1
S'org.pippin.gimp.org.kernagic'
p2
(dp3
S'lstem'
p4
I0
sS'rstem'
p5
I0
ssS'com.typemytype.robofont.layerData'
p6
(dp7
sS'org.robofab.postScriptHintData'
p8
(dp9
s."
LayerCount: 2
Fore
SplineSet
209 435 m 256
 130 435 63 495 63 580 c 256
 63 664 130 722 209 722 c 256
 289 722 357 664 357 580 c 256
 357 498 291 435 209 435 c 256
209 484 m 256
 260 484 302 522 302 579 c 256
 302 635 260 673 210 673 c 256
 160 673 119 635 119 579 c 256
 119 522 159 484 209 484 c 256
EndSplineSet
Validated: 1
EndChar

StartChar: dieresis
Encoding: 168 168 187
Width: 456
VWidth: 0
GlyphClass: 4
Flags: HW
PickledData: "(dp1
S'org.robofab.postScriptHintData'
p2
(dp3
sS'com.typemytype.robofont.layerData'
p4
(dp5
s."
LayerCount: 2
Fore
SplineSet
329 630 m 256
 293 630 276 653 276 683 c 256
 276 712 292 736 329 736 c 256
 365 736 381 712 381 683 c 256
 381 653 365 630 329 630 c 256
117 630 m 256
 81 630 64 653 64 683 c 256
 64 712 80 736 117 736 c 256
 153 736 168 712 168 683 c 256
 168 653 153 630 117 630 c 256
EndSplineSet
Validated: 1
EndChar

StartChar: divide
Encoding: 247 247 188
Width: 573
VWidth: 0
GlyphClass: 2
Flags: HW
PickledData: "(dp1
S'org.pippin.gimp.org.kernagic'
p2
(dp3
S'lstem'
p4
I0
sS'rstem'
p5
I0
ssS'com.typemytype.robofont.layerData'
p6
(dp7
sS'org.robofab.postScriptHintData'
p8
(dp9
s."
LayerCount: 2
Fore
SplineSet
237 538 m 257
 336 538 l 257
 336 435 l 257
 237 435 l 257
 237 538 l 257
237 120 m 257
 334 120 l 257
 334 15 l 257
 237 15 l 257
 237 120 l 257
50 317 m 257
 521 317 l 257
 521 247 l 257
 50 247 l 257
 50 317 l 257
EndSplineSet
Validated: 1
EndChar

StartChar: dollar
Encoding: 36 36 189
Width: 596
VWidth: 0
GlyphClass: 2
Flags: HW
PickledData: "(dp1
S'org.pippin.gimp.org.kernagic'
p2
(dp3
S'lstem'
p4
I0
sS'rstem'
p5
I0
ssS'com.typemytype.robofont.layerData'
p6
(dp7
S'b'
(dp8
S'name'
p9
S'dollar'
p10
sS'lib'
p11
(dp12
sS'unicodes'
p13
(tsS'width'
p14
I1221
sS'contours'
p15
(tsS'components'
p16
(tsS'anchors'
p17
(tsssS'org.robofab.postScriptHintData'
p18
(dp19
s."
LayerCount: 2
Fore
SplineSet
267 21 m 257
 333 21 l 257
 326 -145 l 257
 267 -145 l 257
 267 21 l 257
275 862 m 257
 337 862 l 257
 337 697 l 257
 267 697 l 257
 275 862 l 257
EndSplineSet
Refer: 92 83 N 1 0 0 1 0 0 2
Validated: 5
EndChar

StartChar: dotaccent
Encoding: 729 729 190
Width: 221
VWidth: 0
GlyphClass: 4
Flags: HW
PickledData: "(dp1
S'org.robofab.postScriptHintData'
p2
(dp3
sS'com.typemytype.robofont.layerData'
p4
(dp5
s."
LayerCount: 2
Fore
SplineSet
175 699 m 256
 175 660 151 636 110 636 c 256
 69 636 46 660 46 699 c 256
 46 737 69 760 110 760 c 256
 151 760 175 737 175 699 c 256
EndSplineSet
Validated: 1
EndChar

StartChar: dotlessi
Encoding: 305 305 191
Width: 257
VWidth: 0
GlyphClass: 2
Flags: HW
PickledData: "(dp1
S'org.pippin.gimp.org.kernagic'
p2
(dp3
S'lstem'
p4
I0
sS'rstem'
p5
I0
ssS'com.typemytype.robofont.layerData'
p6
(dp7
sS'org.robofab.postScriptHintData'
p8
(dp9
s."
LayerCount: 2
Fore
SplineSet
89 528 m 257
 178 528 l 257
 178 0 l 257
 89 0 l 257
 89 528 l 257
EndSplineSet
Validated: 1
EndChar

StartChar: uni0237
Encoding: 567 567 192
Width: 290
VWidth: 0
GlyphClass: 2
Flags: HW
PickledData: "(dp1
S'org.pippin.gimp.org.kernagic'
p2
(dp3
S'lstem'
p4
I0
sS'rstem'
p5
I0
ssS'com.fontlab.hintData'
p6
(dp7
S'vhints'
p8
((dp9
S'position'
p10
I111
sS'width'
p11
I142
stp12
sS'hhints'
p13
((dp14
g10
I-479
sg11
I112
stp15
ssS'com.typemytype.robofont.layerData'
p16
(dp17
sS'org.robofab.postScriptHintData'
p18
(dp19
s."
HStem: -234 55
VStem: 54 69
LayerCount: 2
Fore
SplineSet
118 528 m 257
 207 528 l 257
 207 -6 l 258
 207 -134 164 -171 55 -188 c 257
 24 -193 l 257
 10 -124 l 257
 42 -116 l 258
 116 -99 118 -82 118 9 c 258
 118 528 l 257
EndSplineSet
Validated: 1
EndChar

StartChar: e
Encoding: 101 101 193
Width: 558
VWidth: 0
GlyphClass: 2
Flags: HW
PickledData: "(dp1
S'org.pippin.gimp.org.kernagic'
p2
(dp3
S'lstem'
p4
I0
sS'rstem'
p5
I747
ssS'com.fontlab.hintData'
p6
(dp7
S'hhints'
p8
((dp9
S'position'
p10
I-19
sS'width'
p11
I94
s(dp12
g10
I982
sg11
I92
stp13
ssS'com.typemytype.robofont.layerData'
p14
(dp15
sS'org.robofab.postScriptHintData'
p16
(dp17
s."
HStem: -9 46 479 45
AnchorPoint: "bot" 308 0 basechar 0
LayerCount: 2
Fore
SplineSet
151 306 m 257
 431 306 l 257
 430 412 389 474 305 474 c 256
 220 474 160 410 151 306 c 257
502 249 m 257
 149 249 l 257
 157 114 228 56 323 56 c 256
 384 56 422 76 465 101 c 257
 472 101 l 257
 492 42 l 257
 449 12 386 -10 312 -10 c 256
 169 -10 59 94 59 263 c 256
 59 439 168 540 301 540 c 256
 430 540 507 449 507 303 c 256
 507 288 502 250 502 249 c 257
EndSplineSet
Validated: 1
EndChar

StartChar: eight
Encoding: 56 56 201
Width: 615
VWidth: 0
GlyphClass: 2
Flags: HW
PickledData: "(dp1
S'org.pippin.gimp.org.kernagic'
p2
(dp3
S'lstem'
p4
I0
sS'rstem'
p5
I0
ssS'com.typemytype.robofont.layerData'
p6
(dp7
sS'org.robofab.postScriptHintData'
p8
(dp9
s."
LayerCount: 2
Fore
SplineSet
308 400 m 257
 396 421 439 469 439 545 c 256
 439 614 388 655 308 655 c 256
 229 655 175 614 175 545 c 256
 175 469 221 421 308 400 c 257
308 59 m 256
 408 59 455 101 455 187 c 256
 455 270 393 320 308 340 c 257
 224 320 159 272 159 186 c 256
 159 103 211 59 308 59 c 256
308 -10 m 256
 179 -10 74 52 74 179 c 256
 74 279 128 341 220 373 c 257
 145 398 88 456 88 544 c 256
 88 658 181 721 308 721 c 256
 435 721 526 658 526 544 c 256
 526 456 474 403 397 374 c 257
 484 345 541 272 541 179 c 256
 541 52 438 -10 308 -10 c 256
EndSplineSet
Validated: 1
EndChar

StartChar: emdash
Encoding: 8212 8212 204
Width: 1039
VWidth: 0
GlyphClass: 2
Flags: HW
PickledData: "(dp1
S'org.robofab.postScriptHintData'
p2
(dp3
sS'com.typemytype.robofont.layerData'
p4
(dp5
s."
LayerCount: 2
Fore
SplineSet
29 251 m 257
 29 321 l 257
 1010 321 l 257
 1010 251 l 257
 29 251 l 257
EndSplineSet
Validated: 1
EndChar

StartChar: endash
Encoding: 8211 8211 205
Width: 644
VWidth: 0
GlyphClass: 2
Flags: HW
PickledData: "(dp1
S'org.pippin.gimp.org.kernagic'
p2
(dp3
S'lstem'
p4
I0
sS'rstem'
p5
I0
ssS'com.typemytype.robofont.layerData'
p6
(dp7
sS'org.robofab.postScriptHintData'
p8
(dp9
s."
LayerCount: 2
Fore
SplineSet
35 255 m 257
 35 319 l 257
 609 319 l 257
 609 255 l 257
 35 255 l 257
EndSplineSet
Validated: 1
EndChar

StartChar: eng
Encoding: 331 331 206
Width: 584
VWidth: 0
GlyphClass: 2
Flags: HW
PickledData: "(dp1
S'org.robofab.postScriptHintData'
p2
(dp3
sS'com.typemytype.robofont.layerData'
p4
(dp5
s."
LayerCount: 2
Fore
SplineSet
427 62 m 257
 515 62 l 257
 515 -7 l 258
 515 -168 446 -212 229 -212 c 257
 228 -143 l 257
 409 -143 427 -110 427 -5 c 257
 427 62 l 257
EndSplineSet
Refer: 274 110 N 1 0 0 1 0 0 2
Validated: 5
EndChar

StartChar: equal
Encoding: 61 61 208
Width: 522
VWidth: 0
GlyphClass: 2
Flags: HW
PickledData: "(dp1
S'org.pippin.gimp.org.kernagic'
p2
(dp3
S'lstem'
p4
I0
sS'rstem'
p5
I0
ssS'com.typemytype.robofont.layerData'
p6
(dp7
S'b'
(dp8
S'name'
p9
S'equal'
p10
sS'lib'
p11
(dp12
sS'unicodes'
p13
(tsS'width'
p14
I1050
sS'contours'
p15
(tsS'components'
p16
(tsS'anchors'
p17
(tsssS'org.robofab.postScriptHintData'
p18
(dp19
s."
LayerCount: 2
Fore
SplineSet
62 278 m 257
 463 278 l 257
 463 203 l 257
 62 203 l 257
 62 278 l 257
62 467 m 257
 463 467 l 257
 463 393 l 257
 62 393 l 257
 62 467 l 257
EndSplineSet
Validated: 1
EndChar

StartChar: estimated
Encoding: 8494 8494 209
Width: 594
VWidth: 0
GlyphClass: 2
Flags: HW
PickledData: "(dp1
S'org.robofab.postScriptHintData'
p2
(dp3
sS'com.typemytype.robofont.layerData'
p4
(dp5
S'b'
(dp6
S'name'
p7
S'estimated'
p8
sS'lib'
p9
(dp10
sS'unicodes'
p11
(tsS'width'
p12
I1223
sS'contours'
p13
(tsS'components'
p14
(tsS'anchors'
p15
(tsss."
LayerCount: 2
Fore
SplineSet
490 293 m 257
 490 407 424 507 322 507 c 256
 238 507 166 420 159 293 c 257
 490 293 l 257
50 264 m 256
 50 420 162 537 319 537 c 256
 475 537 547 423 547 254 c 257
 158 254 l 257
 158 119 216 26 328 26 c 256
 416 26 470 66 518 117 c 257
 543 92 l 257
 495 34 429 -10 328 -10 c 256
 141 -10 50 108 50 264 c 256
EndSplineSet
Validated: 1
EndChar

StartChar: eth
Encoding: 240 240 210
Width: 593
VWidth: 0
GlyphClass: 2
Flags: HW
PickledData: "(dp1
S'org.pippin.gimp.org.kernagic'
p2
(dp3
S'lstem'
p4
I0
sS'rstem'
p5
I0
ssS'com.typemytype.robofont.layerData'
p6
(dp7
sS'org.robofab.postScriptHintData'
p8
(dp9
s."
LayerCount: 2
Fore
SplineSet
459 242 m 256
 459 330 399 413 292 413 c 256
 190 413 131 338 131 238 c 256
 131 145 185 57 295 57 c 256
 403 57 459 130 459 242 c 256
109 771 m 257
 206 771 l 257
 279 697 l 257
 419 751 l 257
 443 695 l 257
 322 649 l 257
 411 551 461 488 494 425 c 256
 519 375 536 306 536 239 c 256
 536 96 454 -10 292 -10 c 256
 134 -10 49 107 49 239 c 256
 49 381 147 476 284 476 c 256
 351 476 383 449 411 428 c 257
 386 474 337 538 255 620 c 257
 131 571 l 257
 107 628 l 257
 213 670 l 257
 109 771 l 257
EndSplineSet
Validated: 1
EndChar

StartChar: exclam
Encoding: 33 33 211
Width: 349
VWidth: 0
GlyphClass: 2
Flags: HW
PickledData: "(dp1
S'org.pippin.gimp.org.kernagic'
p2
(dp3
S'lstem'
p4
I0
sS'rstem'
p5
I0
ssS'com.typemytype.robofont.layerData'
p6
(dp7
sS'org.robofab.postScriptHintData'
p8
(dp9
s."
LayerCount: 2
Fore
SplineSet
170 -6 m 256
 130 -6 112 24 112 54 c 256
 112 83 130 113 170 113 c 256
 210 113 228 83 228 54 c 256
 228 23 210 -6 170 -6 c 256
152 211 m 257
 124 651 l 257
 124 716 l 257
 213 716 l 257
 213 651 l 257
 188 211 l 257
 152 211 l 257
EndSplineSet
Validated: 1
EndChar

StartChar: f
Encoding: 102 102 213
Width: 371
VWidth: 0
GlyphClass: 2
Flags: HW
PickledData: "(dp1
S'org.pippin.gimp.org.kernagic'
p2
(dp3
S'lstem'
p4
I182
sS'rstem'
p5
I417
ssS'com.fontlab.hintData'
p6
(dp7
S'vhints'
p8
((dp9
S'position'
p10
I269
sS'width'
p11
I166
stp12
sS'hhints'
p13
((dp14
g10
I952
sg11
I89
s(dp15
g10
I1358
sg11
I122
stp16
ssS'com.typemytype.robofont.layerData'
p17
(dp18
sS'org.robofab.postScriptHintData'
p19
(dp20
s."
HStem: 465 43 663 60
VStem: 131 81
LayerCount: 2
Fore
SplineSet
214 528 m 257
 348 528 l 257
 348 474 l 257
 214 474 l 257
 214 0 l 257
 125 0 l 257
 125 474 l 257
 33 474 l 257
 35 520 l 257
 125 527 l 257
 125 567 l 258
 125 712 180 741 276 741 c 258
 283 741 l 258
 323 741 356 732 357 732 c 257
 351 672 l 257
 348 672 317 676 300 676 c 256
 231 676 214 655 214 567 c 258
 214 528 l 257
EndSplineSet
Validated: 1
EndChar

StartChar: five
Encoding: 53 53 214
Width: 615
VWidth: 0
GlyphClass: 2
Flags: HW
PickledData: "(dp1
S'org.pippin.gimp.org.kernagic'
p2
(dp3
S'lstem'
p4
I0
sS'rstem'
p5
I0
ssS'com.typemytype.robofont.layerData'
p6
(dp7
sS'org.robofab.postScriptHintData'
p8
(dp9
s."
LayerCount: 2
Fore
SplineSet
325 390 m 256
 274 390 227 369 197 329 c 257
 125 340 l 257
 147 711 l 257
 511 711 l 257
 501 640 l 257
 231 640 l 257
 208 408 l 257
 242 439 284 458 339 458 c 256
 482 458 555 344 555 230 c 256
 555 110 474 -10 306 -10 c 256
 196 -10 118 47 88 96 c 257
 140 146 l 257
 147 146 l 257
 186 93 233 66 305 66 c 256
 411 66 460 147 460 230 c 256
 460 311 413 390 325 390 c 256
EndSplineSet
Validated: 1
EndChar

StartChar: florin
Encoding: 402 402 216
Width: 504
VWidth: 0
GlyphClass: 2
Flags: HW
PickledData: "(dp1
S'org.robofab.postScriptHintData'
p2
(dp3
s."
LayerCount: 2
Fore
SplineSet
270 607 m 258
 287 693 332 758 424 758 c 256
 486 758 537 730 537 636 c 257
 471 636 l 257
 470 687 457 713 428 713 c 258
 427 713 l 258
 380 713 367 667 357 616 c 258
 340 526 l 257
 448 526 l 257
 440 485 l 257
 331 485 l 257
 231 59 l 258
 202 -65 131 -132 48 -132 c 256
 32 -132 17 -130 0 -125 c 257
 8 -82 l 257
 26 -85 41 -87 54 -87 c 256
 137 -87 129 -20 147 59 c 257
 248 485 l 257
 165 485 l 257
 173 526 l 257
 254 526 l 257
 270 607 l 258
EndSplineSet
Validated: 1
EndChar

StartChar: foundryicon
Encoding: 65538 -1 217
Width: 657
VWidth: 0
GlyphClass: 2
Flags: HW
PickledData: "(dp1
S'org.robofab.postScriptHintData'
p2
(dp3
s."
LayerCount: 2
Fore
SplineSet
137 0 m 257
 207 225 l 257
 17 369 l 257
 253 369 l 257
 327 593 l 257
 404 369 l 257
 641 369 l 257
 450 225 l 257
 521 0 l 257
 327 136 l 257
 137 0 l 257
237 198 m 257
 289 198 l 257
 289 270 l 257
 372 198 l 257
 423 198 l 257
 423 328 l 257
 372 328 l 257
 372 255 l 257
 289 328 l 257
 237 328 l 257
 237 198 l 257
EndSplineSet
Validated: 1
EndChar

StartChar: four
Encoding: 52 52 218
Width: 615
VWidth: 0
GlyphClass: 2
Flags: HW
PickledData: "(dp1
S'org.pippin.gimp.org.kernagic'
p2
(dp3
S'lstem'
p4
I0
sS'rstem'
p5
I0
ssS'com.typemytype.robofont.layerData'
p6
(dp7
sS'org.robofab.postScriptHintData'
p8
(dp9
s."
LayerCount: 2
Fore
SplineSet
154 252 m 257
 379 252 l 257
 379 603 l 257
 154 252 l 257
379 0 m 257
 379 182 l 257
 88 182 l 257
 65 253 l 257
 372 711 l 257
 469 711 l 257
 469 253 l 257
 553 253 l 257
 547 182 l 257
 469 182 l 257
 469 0 l 257
 379 0 l 257
EndSplineSet
Validated: 1
EndChar

StartChar: fraction
Encoding: 8260 8260 219
Width: 509
VWidth: 0
GlyphClass: 2
Flags: HW
PickledData: "(dp1
S'org.robofab.postScriptHintData'
p2
(dp3
s."
LayerCount: 2
Fore
SplineSet
62 0 m 257
 379 716 l 257
 454 716 l 257
 136 0 l 257
 62 0 l 257
EndSplineSet
Validated: 1
EndChar

StartChar: g
Encoding: 103 103 220
Width: 588
VWidth: 0
GlyphClass: 2
Flags: HW
PickledData: "(dp1
S'org.pippin.gimp.org.kernagic'
p2
(dp3
S'lstem'
p4
I0
sS'rstem'
p5
I0
ssS'com.fontlab.hintData'
p6
(dp7
S'vhints'
p8
((dp9
S'position'
p10
I128
sS'width'
p11
I122
s(dp12
g10
I977
sg11
I125
s(dp13
g10
I977
sg11
I36
stp14
sS'hhints'
p15
((dp16
g10
I-426
sg11
I101
s(dp17
g10
I0
sg11
I93
s(dp18
g10
I982
sg11
I92
stp19
ssS'com.typemytype.robofont.layerData'
p20
(dp21
sS'org.robofab.postScriptHintData'
p22
(dp23
s."
HStem: -208 49 0 45 479 45
VStem: 62 60 477 61 477 18
LayerCount: 2
Fore
SplineSet
292 56 m 256
 348 56 397 75 425 113 c 257
 425 408 l 257
 393 453 348 474 291 474 c 256
 195 474 146 396 146 267 c 256
 146 135 192 56 292 56 c 256
284 -9 m 256
 139 -9 55 97 55 267 c 256
 55 434 145 540 286 540 c 256
 353 540 401 512 431 475 c 257
 435 528 l 257
 511 528 l 257
 511 25 l 258
 511 -152 445 -238 273 -238 c 256
 213 -238 154 -225 112 -210 c 257
 120 -141 l 257
 131 -141 l 257
 172 -158 227 -168 272 -168 c 256
 371 -168 427 -130 427 0 c 258
 427 5 l 257
 427 45 l 257
 387 3 331 -9 284 -9 c 256
EndSplineSet
Validated: 8388609
EndChar

StartChar: germandbls
Encoding: 223 223 226
Width: 626
VWidth: 0
GlyphClass: 2
Flags: HW
PickledData: "(dp1
S'org.pippin.gimp.org.kernagic'
p2
(dp3
S'lstem'
p4
I0
sS'rstem'
p5
I0
ssS'com.typemytype.robofont.layerData'
p6
(dp7
S'b'
(dp8
S'name'
p9
S'germandbls'
p10
sS'lib'
p11
(dp12
sS'unicodes'
p13
(tsS'width'
p14
I1278
sS'contours'
p15
(tsS'components'
p16
(tsS'anchors'
p17
(tsssS'org.robofab.postScriptHintData'
p18
(dp19
s."
LayerCount: 2
Fore
SplineSet
416 -10 m 256
 356 -10 289 8 249 28 c 257
 271 93 l 257
 297 79 351 61 403 61 c 256
 463 61 488 100 488 144 c 256
 488 248 306 295 306 392 c 256
 306 474 404 502 404 602 c 256
 404 654 370 688 306 688 c 256
 217 688 169 643 169 527 c 258
 169 0 l 257
 81 0 l 257
 81 527 l 258
 81 671 157 758 303 758 c 256
 414 758 488 697 488 602 c 256
 488 496 386 442 386 399 c 256
 386 344 576 291 576 145 c 256
 576 50 517 -10 416 -10 c 256
EndSplineSet
Validated: 1
EndChar

StartChar: grave
Encoding: 96 96 227
Width: 453
VWidth: 0
GlyphClass: 4
Flags: HW
PickledData: "(dp1
S'org.robofab.postScriptHintData'
p2
(dp3
sS'com.typemytype.robofont.layerData'
p4
(dp5
s."
LayerCount: 2
Fore
SplineSet
198 590 m 257
 47 774 l 257
 161 774 l 257
 256 590 l 257
 198 590 l 257
EndSplineSet
Validated: 1
EndChar

StartChar: greater
Encoding: 62 62 228
Width: 540
VWidth: 0
GlyphClass: 2
Flags: HW
PickledData: "(dp1
S'org.pippin.gimp.org.kernagic'
p2
(dp3
S'lstem'
p4
I0
sS'rstem'
p5
I0
ssS'com.typemytype.robofont.layerData'
p6
(dp7
S'b'
(dp8
S'name'
p9
S'greater'
p10
sS'lib'
p11
(dp12
sS'unicodes'
p13
(tsS'width'
p14
I1107
sS'contours'
p15
(tsS'components'
p16
(tsS'anchors'
p17
(tsssS'org.robofab.postScriptHintData'
p18
(dp19
s."
LayerCount: 2
Fore
SplineSet
46 504 m 257
 46 579 l 257
 500 336 l 257
 500 291 l 257
 45 71 l 257
 45 146 l 257
 399 316 l 257
 46 504 l 257
EndSplineSet
Validated: 1
EndChar

StartChar: greaterequal
Encoding: 8805 8805 229
Width: 582
VWidth: 0
GlyphClass: 2
Flags: HW
PickledData: "(dp1
S'org.pippin.gimp.org.kernagic'
p2
(dp3
S'lstem'
p4
I0
sS'rstem'
p5
I0
ssS'com.typemytype.robofont.layerData'
p6
(dp7
S'b'
(dp8
S'name'
p9
S'greaterequal'
p10
sS'lib'
p11
(dp12
sS'unicodes'
p13
(tsS'width'
p14
I1192
sS'contours'
p15
(tsS'components'
p16
(tsS'anchors'
p17
(tsssS'org.robofab.postScriptHintData'
p18
(dp19
s."
LayerCount: 2
Fore
SplineSet
63 4 m 257
 63 67 l 257
 519 67 l 257
 519 4 l 257
 63 4 l 257
77 114 m 257
 77 186 l 257
 422 370 l 257
 78 567 l 257
 78 639 l 257
 510 391 l 257
 510 349 l 257
 77 114 l 257
EndSplineSet
Validated: 1
EndChar

StartChar: guillemotleft
Encoding: 171 171 230
Width: 487
VWidth: 0
GlyphClass: 2
Flags: HW
PickledData: "(dp1
S'org.pippin.gimp.org.kernagic'
p2
(dp3
S'lstem'
p4
I0
sS'rstem'
p5
I0
ssS'com.typemytype.robofont.layerData'
p6
(dp7
S'b'
(dp8
S'name'
p9
S'guillemotleft'
p10
sS'lib'
p11
(dp12
sS'unicodes'
p13
(tsS'width'
p14
I994
sS'contours'
p15
(tsS'components'
p16
(tsS'anchors'
p17
(tsssS'org.robofab.postScriptHintData'
p18
(dp19
s."
LayerCount: 2
Fore
SplineSet
356 71 m 257
 216 269 l 257
 357 468 l 257
 437 468 l 257
 300 271 l 257
 434 71 l 257
 356 71 l 257
180 71 m 257
 40 269 l 257
 182 468 l 257
 262 468 l 257
 125 271 l 257
 258 71 l 257
 180 71 l 257
EndSplineSet
Validated: 1
EndChar

StartChar: guillemotright
Encoding: 187 187 231
Width: 487
VWidth: 0
GlyphClass: 2
Flags: HW
PickledData: "(dp1
S'org.pippin.gimp.org.kernagic'
p2
(dp3
S'lstem'
p4
I0
sS'rstem'
p5
I0
ssS'com.typemytype.robofont.layerData'
p6
(dp7
sS'org.robofab.postScriptHintData'
p8
(dp9
s."
LayerCount: 2
Fore
SplineSet
297 71 m 257
 219 71 l 257
 353 271 l 257
 216 468 l 257
 296 468 l 257
 438 270 l 257
 297 71 l 257
122 71 m 257
 44 71 l 257
 178 271 l 257
 42 468 l 257
 121 468 l 257
 262 270 l 257
 122 71 l 257
EndSplineSet
Validated: 1
EndChar

StartChar: guilsinglleft
Encoding: 8249 8249 232
Width: 307
VWidth: 0
GlyphClass: 2
Flags: HW
PickledData: "(dp1
S'org.robofab.postScriptHintData'
p2
(dp3
s."
LayerCount: 2
Fore
SplineSet
186 73 m 257
 47 270 l 257
 188 469 l 257
 268 469 l 257
 130 271 l 257
 264 73 l 257
 186 73 l 257
EndSplineSet
Validated: 1
EndChar

StartChar: guilsinglright
Encoding: 8250 8250 233
Width: 374
VWidth: 0
GlyphClass: 2
Flags: HW
PickledData: "(dp1
S'org.pippin.gimp.org.kernagic'
p2
(dp3
S'lstem'
p4
I0
sS'rstem'
p5
I0
ssS'com.typemytype.robofont.layerData'
p6
(dp7
S'b'
(dp8
S'name'
p9
S'guilsinglright'
p10
sS'lib'
p11
(dp12
sS'unicodes'
p13
(tsS'width'
p14
I766
sS'contours'
p15
(tsS'components'
p16
(tsS'anchors'
p17
(tsssS'org.robofab.postScriptHintData'
p18
(dp19
s."
LayerCount: 2
Fore
SplineSet
75 73 m 257
 211 279 l 257
 73 488 l 257
 153 488 l 257
 297 279 l 257
 155 73 l 257
 75 73 l 257
EndSplineSet
Validated: 1
EndChar

StartChar: h
Encoding: 104 104 234
Width: 593
VWidth: 0
GlyphClass: 2
Flags: HW
PickledData: "(dp1
S'org.pippin.gimp.org.kernagic'
p2
(dp3
S'lstem'
p4
I0
sS'rstem'
p5
I0
ssS'com.fontlab.hintData'
p6
(dp7
S'vhints'
p8
((dp9
S'position'
p10
I193
sS'width'
p11
I122
s(dp12
g10
I910
sg11
I122
stp13
sS'hhints'
p14
((dp15
g10
I982
sg11
I92
stp16
ssS'com.typemytype.robofont.layerData'
p17
(dp18
sS'org.robofab.postScriptHintData'
p19
(dp20
s."
HStem: 479 45
VStem: 94 60 444 60
LayerCount: 2
Fore
SplineSet
82 0 m 257
 82 752 l 257
 170 762 l 257
 170 560 l 257
 167 430 l 257
 203 513 268 540 342 540 c 256
 456 540 518 462 518 327 c 258
 518 0 l 257
 428 0 l 257
 428 323 l 258
 428 424 400 474 324 474 c 256
 207 474 170 383 170 291 c 258
 170 0 l 257
 82 0 l 257
EndSplineSet
Validated: 1
EndChar

StartChar: hungarumlaut
Encoding: 733 733 237
Width: 396
VWidth: 0
GlyphClass: 4
Flags: HW
PickledData: "(dp1
S'org.robofab.postScriptHintData'
p2
(dp3
sS'com.typemytype.robofont.layerData'
p4
(dp5
s."
LayerCount: 2
Fore
SplineSet
212 609 m 257
 285 780 l 257
 375 780 l 257
 265 609 l 257
 212 609 l 257
77 609 m 257
 141 780 l 257
 222 780 l 257
 131 609 l 257
 77 609 l 257
EndSplineSet
Validated: 1
EndChar

StartChar: hyphen
Encoding: 45 45 238
Width: 420
VWidth: 0
GlyphClass: 4
Flags: HW
PickledData: "(dp1
S'org.pippin.gimp.org.kernagic'
p2
(dp3
S'lstem'
p4
I0
sS'rstem'
p5
I0
ssS'com.typemytype.robofont.layerData'
p6
(dp7
sS'org.robofab.postScriptHintData'
p8
(dp9
s."
LayerCount: 2
Fore
SplineSet
84 256 m 257
 84 325 l 257
 333 325 l 257
 333 256 l 257
 84 256 l 257
EndSplineSet
Validated: 1
EndChar

StartChar: i
Encoding: 105 105 239
Width: 290
VWidth: 0
GlyphClass: 2
Flags: HW
PickledData: "(dp1
S'org.robofab.postScriptHintData'
p2
(dp3
sS'com.typemytype.robofont.layerData'
p4
(dp5
s."
LayerCount: 2
Fore
SplineSet
217 699 m 256
 217 660 193 636 152 636 c 256
 111 636 88 660 88 699 c 256
 88 737 111 760 152 760 c 256
 193 760 217 737 217 699 c 256
107 528 m 257
 196 528 l 257
 196 0 l 257
 107 0 l 257
 107 528 l 257
EndSplineSet
Validated: 1
EndChar

StartChar: infinity
Encoding: 8734 8734 250
Width: 810
VWidth: 0
GlyphClass: 2
Flags: HW
PickledData: "(dp1
S'org.pippin.gimp.org.kernagic'
p2
(dp3
S'lstem'
p4
I0
sS'rstem'
p5
I0
ssS'com.typemytype.robofont.layerData'
p6
(dp7
S'b'
(dp8
S'name'
p9
S'infinity'
p10
sS'lib'
p11
(dp12
sS'unicodes'
p13
(tsS'width'
p14
I1647
sS'contours'
p15
(tsS'components'
p16
(tsS'anchors'
p17
(tsssS'org.robofab.postScriptHintData'
p18
(dp19
s."
LayerCount: 2
Fore
SplineSet
710 322 m 256
 710 381 665 431 601 431 c 256
 537 431 485 372 443 309 c 257
 501 229 544 187 603 187 c 256
 676 187 710 246 710 322 c 256
367 308 m 257
 323 378 270 431 204 431 c 256
 135 431 92 375 92 309 c 256
 92 247 138 187 207 187 c 256
 268 187 323 242 367 308 c 257
405 361 m 257
 460 439 520 494 603 494 c 256
 711 494 772 418 772 311 c 256
 772 199 697 121 602 121 c 256
 530 121 470 165 405 254 c 257
 348 176 286 121 206 121 c 256
 98 121 35 212 35 319 c 256
 35 417 110 494 204 494 c 256
 286 494 346 441 405 361 c 257
EndSplineSet
Validated: 1
EndChar

StartChar: integral
Encoding: 8747 8747 251
Width: 474
VWidth: 0
GlyphClass: 2
Flags: HW
PickledData: "(dp1
S'org.pippin.gimp.org.kernagic'
p2
(dp3
S'lstem'
p4
I0
sS'rstem'
p5
I0
ssS'com.typemytype.robofont.layerData'
p6
(dp7
S'b'
(dp8
S'name'
p9
S'integral'
p10
sS'lib'
p11
(dp12
sS'unicodes'
p13
(tsS'width'
p14
I994
sS'contours'
p15
(tsS'components'
p16
(tsS'anchors'
p17
(tsssS'org.robofab.postScriptHintData'
p18
(dp19
s."
LayerCount: 2
Fore
SplineSet
249 564 m 258
 249 684 281 746 367 746 c 256
 384 746 404 743 427 738 c 257
 427 687 l 257
 410 692 395 695 382 695 c 256
 325 695 313 647 313 569 c 258
 313 -16 l 258
 313 -138 274 -205 183 -205 c 256
 166 -205 147 -203 126 -198 c 257
 126 -144 l 257
 144 -149 160 -151 173 -151 c 256
 236 -151 249 -101 249 -20 c 258
 249 564 l 258
EndSplineSet
Validated: 1
EndChar

StartChar: j
Encoding: 106 106 254
Width: 286
VWidth: 0
GlyphClass: 2
Flags: HW
PickledData: "(dp1
S'org.robofab.postScriptHintData'
p2
(dp3
sS'com.typemytype.robofont.layerData'
p4
(dp5
s."
LayerCount: 2
Fore
SplineSet
220 699 m 256
 220 660 197 636 156 636 c 256
 115 636 91 660 91 699 c 256
 91 737 115 760 156 760 c 256
 197 760 220 737 220 699 c 256
117 528 m 257
 206 528 l 257
 206 -6 l 258
 206 -134 163 -171 54 -188 c 257
 23 -193 l 257
 9 -124 l 257
 41 -116 l 258
 115 -99 117 -82 117 9 c 258
 117 528 l 257
EndSplineSet
Validated: 1
EndChar

StartChar: k
Encoding: 107 107 256
Width: 536
VWidth: 0
GlyphClass: 2
Flags: HW
PickledData: "(dp1
S'org.pippin.gimp.org.kernagic'
p2
(dp3
S'lstem'
p4
I0
sS'rstem'
p5
I671
ssS'com.typemytype.robofont.layerData'
p6
(dp7
sS'org.robofab.postScriptHintData'
p8
(dp9
s."
AnchorPoint: "bot" 291 0 basechar 0
LayerCount: 2
Fore
SplineSet
82 0 m 257
 82 752 l 257
 170 762 l 257
 170 374 l 257
 167 270 l 257
 409 528 l 257
 509 528 l 257
 509 517 l 257
 292 289 l 257
 525 12 l 257
 525 0 l 257
 430 0 l 257
 229 246 l 257
 170 195 l 257
 170 0 l 257
 82 0 l 257
EndSplineSet
Validated: 1
EndChar

StartChar: kgreenlandic
Encoding: 312 312 258
Width: 531
VWidth: 0
GlyphClass: 2
Flags: HW
PickledData: "(dp1
S'org.robofab.postScriptHintData'
p2
(dp3
s."
LayerCount: 2
Fore
SplineSet
74 0 m 257
 74 528 l 257
 159 528 l 257
 159 374 l 257
 156 266 l 257
 400 528 l 257
 498 528 l 257
 498 517 l 257
 280 288 l 257
 514 11 l 257
 514 0 l 257
 420 0 l 257
 220 245 l 257
 159 192 l 257
 159 0 l 257
 74 0 l 257
EndSplineSet
Validated: 1
EndChar

StartChar: l
Encoding: 108 108 259
Width: 313
VWidth: 0
GlyphClass: 2
Flags: HW
PickledData: "(dp1
S'org.pippin.gimp.org.kernagic'
p2
(dp3
S'lstem'
p4
I0
sS'rstem'
p5
I238
ssS'com.fontlab.hintData'
p6
(dp7
S'vhints'
p8
((dp9
S'position'
p10
I193
sS'width'
p11
I122
stp12
sS'hhints'
p13
((dp14
g10
I-11
sg11
I87
stp15
ssS'com.typemytype.robofont.layerData'
p16
(dp17
sS'org.robofab.postScriptHintData'
p18
(dp19
s."
HStem: -5 42
VStem: 94 60
LayerCount: 2
Fore
SplineSet
233 -4 m 257
 231 -4 l 258
 137 -4 87 22 87 151 c 258
 87 752 l 257
 176 762 l 257
 176 152 l 258
 176 73 186 66 245 62 c 257
 275 61 l 257
 268 -4 l 257
 233 -4 l 257
EndSplineSet
Validated: 1
EndChar

StartChar: less
Encoding: 60 60 264
Width: 540
VWidth: 0
GlyphClass: 2
Flags: HW
PickledData: "(dp1
S'org.pippin.gimp.org.kernagic'
p2
(dp3
S'lstem'
p4
I0
sS'rstem'
p5
I0
ssS'com.typemytype.robofont.layerData'
p6
(dp7
S'b'
(dp8
S'name'
p9
S'less'
p10
sS'lib'
p11
(dp12
sS'unicodes'
p13
(tsS'width'
p14
I1107
sS'contours'
p15
(tsS'components'
p16
(tsS'anchors'
p17
(tsssS'org.robofab.postScriptHintData'
p18
(dp19
s."
LayerCount: 2
Fore
SplineSet
493 68 m 257
 38 292 l 257
 38 337 l 257
 493 576 l 257
 493 502 l 257
 135 316 l 257
 493 144 l 257
 493 68 l 257
EndSplineSet
Validated: 1
EndChar

StartChar: lessequal
Encoding: 8804 8804 265
Width: 582
VWidth: 0
GlyphClass: 2
Flags: HW
PickledData: "(dp1
S'org.robofab.postScriptHintData'
p2
(dp3
sS'com.typemytype.robofont.layerData'
p4
(dp5
s."
LayerCount: 2
Fore
SplineSet
62 3 m 257
 62 67 l 257
 518 66 l 257
 518 3 l 257
 62 3 l 257
505 119 m 257
 71 352 l 257
 71 393 l 257
 503 639 l 257
 503 567 l 257
 161 373 l 257
 505 190 l 257
 505 119 l 257
EndSplineSet
Validated: 1
EndChar

StartChar: logicalnot
Encoding: 172 172 266
Width: 607
VWidth: 0
GlyphClass: 2
Flags: HW
PickledData: "(dp1
S'org.pippin.gimp.org.kernagic'
p2
(dp3
S'lstem'
p4
I0
sS'rstem'
p5
I0
ssS'com.typemytype.robofont.layerData'
p6
(dp7
sS'org.robofab.postScriptHintData'
p8
(dp9
s."
LayerCount: 2
Fore
SplineSet
51 395 m 257
 520 395 l 257
 520 124 l 257
 457 124 l 257
 457 328 l 257
 51 328 l 257
 51 395 l 257
EndSplineSet
Validated: 1
EndChar

StartChar: lozenge
Encoding: 9674 9674 267
Width: 570
VWidth: 0
GlyphClass: 2
Flags: HW
PickledData: "(dp1
S'org.pippin.gimp.org.kernagic'
p2
(dp3
S'lstem'
p4
I0
sS'rstem'
p5
I0
ssS'com.typemytype.robofont.layerData'
p6
(dp7
S'b'
(dp8
S'name'
p9
S'lozenge'
p10
sS'lib'
p11
(dp12
sS'unicodes'
p13
(tsS'width'
p14
I1164
sS'contours'
p15
(tsS'components'
p16
(tsS'anchors'
p17
(tsssS'org.robofab.postScriptHintData'
p18
(dp19
s."
LayerCount: 2
Fore
SplineSet
440 373 m 257
 431 390 298 662 289 679 c 257
 280 662 141 391 132 374 c 257
 141 357 277 83 286 66 c 257
 295 84 431 356 440 373 c 257
262 771 m 257
 313 771 l 257
 514 374 l 257
 310 -23 l 257
 259 -23 l 257
 59 373 l 257
 262 771 l 257
EndSplineSet
Validated: 1
EndChar

StartChar: m
Encoding: 109 109 269
Width: 896
VWidth: 0
GlyphClass: 2
Flags: HW
PickledData: "(dp1
S'org.pippin.gimp.org.kernagic'
p2
(dp3
S'lstem'
p4
I0
sS'rstem'
p5
I0
ssS'com.fontlab.hintData'
p6
(dp7
S'vhints'
p8
((dp9
S'position'
p10
I193
sS'width'
p11
I122
s(dp12
g10
I193
sg11
I98
s(dp13
g10
I845
sg11
I122
s(dp14
g10
I1483
sg11
I122
stp15
sS'hhints'
p16
((dp17
g10
I982
sg11
I92
stp18
ssS'com.typemytype.robofont.layerData'
p19
(dp20
sS'org.robofab.postScriptHintData'
p21
(dp22
s."
HStem: 479 45
VStem: 94 60 94 48 413 60 724 60
LayerCount: 2
Fore
SplineSet
496 291 m 258
 496 0 l 257
 407 0 l 257
 407 298 l 258
 407 420 378 474 307 474 c 256
 227 474 181 405 169 312 c 257
 169 0 l 257
 80 0 l 257
 80 528 l 257
 154 528 l 257
 164 425 l 257
 197 506 256 540 325 540 c 256
 406 540 459 493 479 416 c 257
 514 501 577 540 653 540 c 256
 761 540 822 470 822 340 c 258
 822 0 l 257
 733 0 l 257
 733 314 l 258
 733 391 719 474 636 474 c 256
 570 474 496 408 496 291 c 258
EndSplineSet
Validated: 8388609
EndChar

StartChar: macron
Encoding: 175 175 270
Width: 558
VWidth: 0
GlyphClass: 4
Flags: HW
PickledData: "(dp1
S'org.robofab.postScriptHintData'
p2
(dp3
sS'com.typemytype.robofont.layerData'
p4
(dp5
s."
LayerCount: 2
Fore
SplineSet
129 648 m 257
 129 697 l 257
 415 697 l 257
 415 648 l 257
 129 648 l 257
EndSplineSet
Validated: 1
EndChar

StartChar: minus
Encoding: 8722 8722 272
Width: 570
VWidth: 0
GlyphClass: 2
Flags: HW
PickledData: "(dp1
S'org.pippin.gimp.org.kernagic'
p2
(dp3
S'lstem'
p4
I0
sS'rstem'
p5
I0
ssS'com.typemytype.robofont.layerData'
p6
(dp7
sS'org.robofab.postScriptHintData'
p8
(dp9
s."
LayerCount: 2
Fore
SplineSet
51 325 m 257
 522 325 l 257
 522 255 l 257
 51 255 l 257
 51 325 l 257
EndSplineSet
Validated: 1
EndChar

StartChar: multiply
Encoding: 215 215 273
Width: 485
VWidth: 0
GlyphClass: 2
Flags: HW
PickledData: "(dp1
S'org.pippin.gimp.org.kernagic'
p2
(dp3
S'lstem'
p4
I0
sS'rstem'
p5
I0
ssS'com.typemytype.robofont.layerData'
p6
(dp7
sS'org.robofab.postScriptHintData'
p8
(dp9
s."
LayerCount: 2
Fore
SplineSet
55 470 m 257
 102 519 l 257
 241 369 l 257
 378 518 l 257
 427 468 l 257
 288 319 l 257
 301 306 428 166 428 166 c 257
 383 116 l 257
 241 269 l 257
 98 116 l 257
 51 165 l 257
 194 319 l 257
 55 470 l 257
EndSplineSet
Validated: 1
EndChar

StartChar: n
Encoding: 110 110 274
Width: 589
VWidth: 0
GlyphClass: 2
Flags: HW
PickledData: "(dp1
S'org.pippin.gimp.org.kernagic'
p2
(dp3
S'lstem'
p4
I0
sS'rstem'
p5
I0
ssS'com.fontlab.hintData'
p6
(dp7
S'vhints'
p8
((dp9
S'position'
p10
I193
sS'width'
p11
I122
s(dp12
g10
I903
sg11
I122
stp13
sS'hhints'
p14
((dp15
g10
I0
sg11
I22
s(dp16
g10
I982
sg11
I92
s(dp17
g10
I1034
sg11
I21
stp18
ssS'com.typemytype.robofont.layerData'
p19
(dp20
sS'org.robofab.postScriptHintData'
p21
(dp22
s."
HStem: 0 11 479 45 505 10
VStem: 94 60 441 60
AnchorPoint: "bot" 296 0 basechar 0
LayerCount: 2
Fore
SplineSet
80 0 m 257
 80 528 l 257
 154 528 l 257
 163 425 l 257
 195 503 255 540 341 540 c 256
 460 540 515 461 515 318 c 258
 515 0 l 257
 426 0 l 257
 426 325 l 258
 426 414 403 474 323 474 c 256
 214 474 169 394 169 299 c 258
 169 0 l 257
 80 0 l 257
EndSplineSet
Validated: 8388609
EndChar

StartChar: nine
Encoding: 57 57 279
Width: 615
VWidth: 0
GlyphClass: 2
Flags: HW
PickledData: "(dp1
S'org.pippin.gimp.org.kernagic'
p2
(dp3
S'lstem'
p4
I0
sS'rstem'
p5
I0
ssS'com.typemytype.robofont.layerData'
p6
(dp7
sS'org.robofab.postScriptHintData'
p8
(dp9
s."
LayerCount: 2
Fore
SplineSet
472 497 m 256
 472 580 419 651 324 651 c 256
 229 651 173 579 173 496 c 256
 173 410 221 343 317 343 c 256
 382 343 472 381 472 497 c 256
172 0 m 257
 172 11 l 257
 251 111 332 209 409 311 c 257
 375 289 333 275 293 275 c 256
 177 275 85 364 85 496 c 256
 85 623 180 721 323 721 c 256
 473 721 559 612 559 491 c 256
 559 387 514 315 447 229 c 257
 269 0 l 257
 172 0 l 257
EndSplineSet
Validated: 1
EndChar

StartChar: notequal
Encoding: 8800 8800 280
Width: 531
VWidth: 0
GlyphClass: 2
Flags: HW
PickledData: "(dp1
S'org.pippin.gimp.org.kernagic'
p2
(dp3
S'lstem'
p4
I0
sS'rstem'
p5
I0
ssS'com.typemytype.robofont.layerData'
p6
(dp7
S'b'
(dp8
S'name'
p9
S'notequal'
p10
sS'lib'
p11
(dp12
sS'unicodes'
p13
(tsS'width'
p14
I1079
sS'contours'
p15
(tsS'components'
p16
(tsS'anchors'
p17
(tsssS'org.robofab.postScriptHintData'
p18
(dp19
s."
LayerCount: 2
Fore
SplineSet
154 23 m 257
 104 32 l 257
 160 171 l 257
 36 171 l 257
 33 232 l 257
 189 232 l 257
 263 382 l 257
 36 382 l 257
 32 443 l 257
 291 443 l 257
 357 586 l 257
 408 579 l 257
 353 443 l 257
 485 443 l 257
 489 381 l 257
 326 381 l 257
 250 231 l 257
 486 231 l 257
 489 171 l 257
 223 171 l 257
 154 23 l 257
EndSplineSet
Validated: 1
EndChar

StartChar: numbersign
Encoding: 35 35 282
Width: 565
VWidth: 0
GlyphClass: 2
Flags: HW
PickledData: "(dp1
S'org.pippin.gimp.org.kernagic'
p2
(dp3
S'lstem'
p4
I0
sS'rstem'
p5
I0
ssS'com.typemytype.robofont.layerData'
p6
(dp7
sS'org.robofab.postScriptHintData'
p8
(dp9
s."
LayerCount: 2
Fore
SplineSet
190 263 m 257
 335 263 l 257
 379 482 l 257
 234 482 l 257
 190 263 l 257
82 -9 m 257
 127 216 l 257
 32 216 l 257
 38 263 l 257
 136 263 l 257
 180 482 l 257
 84 482 l 257
 91 529 l 257
 189 529 l 257
 238 757 l 257
 292 757 l 257
 244 529 l 257
 389 529 l 257
 438 757 l 257
 490 757 l 257
 441 529 l 257
 542 529 l 257
 534 482 l 257
 432 482 l 257
 388 263 l 257
 496 263 l 257
 488 216 l 257
 378 216 l 257
 333 -9 l 257
 281 -9 l 257
 325 216 l 257
 181 216 l 257
 136 -9 l 257
 82 -9 l 257
EndSplineSet
Validated: 1
EndChar

StartChar: o
Encoding: 111 111 283
Width: 593
VWidth: 0
GlyphClass: 2
Flags: HW
PickledData: "(dp1
S'org.pippin.gimp.org.kernagic'
p2
(dp3
S'lstem'
p4
I0
sS'rstem'
p5
I0
ssS'org.robofab.postScriptHintData'
p6
(dp7
sS'com.typemytype.robofont.guides'
p8
((dp9
S'y'
I1093
sS'x'
I582
sS'magnetic'
p10
I5
sS'angle'
p11
F90
sS'isGlobal'
p12
I00
stp13
sS'com.typemytype.robofont.layerData'
p14
(dp15
sS'com.fontlab.hintData'
p16
(dp17
S'vhints'
p18
((dp19
S'position'
p20
I128
sS'width'
p21
I120
s(dp22
g20
I982
sg21
I120
stp23
sS'hhints'
p24
((dp25
g20
I-19
sg21
I92
s(dp26
g20
I982
sg21
I92
stp27
ss."
HStem: -9 45 479 45
VStem: 62 59 479 59
LayerCount: 2
Fore
SplineSet
297 -10 m 256
 143 -10 58 101 58 265 c 256
 58 432 142 540 297 540 c 256
 452 540 536 432 536 265 c 256
 536 101 450 -10 297 -10 c 256
297 56 m 256
 400 56 444 144 444 264 c 256
 444 387 400 474 297 474 c 256
 194 474 149 387 149 264 c 256
 149 144 193 56 297 56 c 256
EndSplineSet
Validated: 1
Substitution2: "Single Substitution lookup 4 subtable" ordmasculine
EndChar

StartChar: oe
Encoding: 339 339 288
Width: 932
VWidth: 0
GlyphClass: 2
Flags: HW
PickledData: "(dp1
S'org.pippin.gimp.org.kernagic'
p2
(dp3
S'lstem'
p4
I0
sS'rstem'
p5
I0
ssS'com.typemytype.robofont.layerData'
p6
(dp7
S'b'
(dp8
S'name'
p9
S'oe'
p10
sS'lib'
p11
(dp12
sS'unicodes'
p13
(tsS'width'
p14
F1915.3599999999999
sS'contours'
p15
(tsS'components'
p16
(tsS'anchors'
p17
(tsssS'org.robofab.postScriptHintData'
p18
(dp19
s."
LayerCount: 2
Fore
SplineSet
529 306 m 257
 811 306 l 257
 809 413 768 475 684 475 c 256
 600 475 538 410 529 306 c 257
290 56 m 256
 394 56 439 144 439 264 c 256
 439 387 394 474 290 474 c 256
 186 474 140 387 140 264 c 256
 140 144 185 56 290 56 c 256
884 303 m 258
 884 292 l 258
 884 276 880 249 880 249 c 257
 527 249 l 257
 528 110 609 56 702 56 c 256
 763 56 802 76 844 101 c 257
 850 101 l 257
 870 42 l 257
 828 13 767 -10 693 -10 c 256
 607 -10 518 42 486 119 c 257
 461 44 380 -10 290 -10 c 256
 138 -10 52 101 52 265 c 256
 52 432 136 540 290 540 c 256
 381 540 458 491 487 416 c 257
 520 492 601 540 680 540 c 256
 807 540 884 449 884 303 c 258
EndSplineSet
Validated: 1
EndChar

StartChar: ogonek
Encoding: 731 731 289
Width: 374
VWidth: 0
GlyphClass: 4
Flags: HW
PickledData: "(dp1
S'org.pippin.gimp.org.kernagic'
p2
(dp3
S'lstem'
p4
I0
sS'rstem'
p5
I0
ssS'com.typemytype.robofont.layerData'
p6
(dp7
sS'org.robofab.postScriptHintData'
p8
(dp9
s."
LayerCount: 2
Fore
SplineSet
216 -207 m 256
 155 -207 123 -177 123 -131 c 256
 123 -74 173 -21 222 0 c 257
 263 0 l 257
 233 -22 193 -74 193 -111 c 256
 193 -138 211 -150 233 -150 c 256
 254 -150 278 -142 287 -138 c 257
 289 -191 l 257
 272 -199 241 -207 216 -207 c 256
EndSplineSet
Validated: 1
EndChar

StartChar: one
Encoding: 49 49 293
Width: 615
VWidth: 0
GlyphClass: 2
Flags: HW
PickledData: "(dp1
S'org.pippin.gimp.org.kernagic'
p2
(dp3
S'lstem'
p4
I0
sS'rstem'
p5
I0
ssS'com.typemytype.robofont.layerData'
p6
(dp7
sS'org.robofab.postScriptHintData'
p8
(dp9
s."
LayerCount: 2
Fore
SplineSet
97 0 m 257
 97 66 l 257
 287 66 l 257
 287 628 l 257
 232 598 140 568 102 563 c 257
 102 634 l 257
 145 644 256 684 295 711 c 257
 377 711 l 257
 377 66 l 257
 547 66 l 257
 547 0 l 257
 97 0 l 257
EndSplineSet
Validated: 1
EndChar

StartChar: onehalf
Encoding: 189 189 294
Width: 864
VWidth: 0
GlyphClass: 3
Flags: HW
PickledData: "(dp1
S'org.pippin.gimp.org.kernagic'
p2
(dp3
S'lstem'
p4
I0
sS'rstem'
p5
I0
ssS'com.typemytype.robofont.layerData'
p6
(dp7
sS'org.robofab.postScriptHintData'
p8
(dp9
s."
LayerCount: 2
Fore
SplineSet
184 0 m 257
 631 722 l 257
 698 722 l 257
 251 0 l 257
 184 0 l 257
67 290 m 257
 67 346 l 257
 140 346 l 257
 140 650 l 257
 122 639 75 619 62 614 c 257
 62 671 l 257
 78 678 134 704 154 722 c 257
 210 722 l 257
 210 346 l 257
 278 346 l 257
 278 290 l 257
 67 290 l 257
563 0 m 257
 562 55 l 257
 684 179 l 258
 737 234 752 262 752 296 c 256
 752 342 719 365 679 365 c 256
 641 365 607 348 579 310 c 257
 542 350 l 257
 568 396 622 426 680 426 c 256
 758 426 820 380 820 300 c 256
 820 234 791 197 729 139 c 258
 643 58 l 257
 816 58 l 257
 813 0 l 257
 563 0 l 257
EndSplineSet
Validated: 1
Ligature2: "fracDiagonalFractionslookup11 subtable" one slash two
EndChar

StartChar: onequarter
Encoding: 188 188 295
Width: 849
VWidth: 0
GlyphClass: 3
Flags: HW
PickledData: "(dp1
S'org.pippin.gimp.org.kernagic'
p2
(dp3
S'lstem'
p4
I0
sS'rstem'
p5
I0
ssS'com.typemytype.robofont.layerData'
p6
(dp7
sS'org.robofab.postScriptHintData'
p8
(dp9
s."
LayerCount: 2
Fore
SplineSet
555 146 m 257
 680 146 l 257
 680 335 l 257
 555 146 l 257
184 0 m 257
 631 722 l 257
 699 722 l 257
 252 0 l 257
 184 0 l 257
681 0 m 257
 681 93 l 257
 485 93 l 257
 485 141 l 257
 676 419 l 257
 745 419 l 257
 745 146 l 257
 800 146 l 257
 803 93 l 257
 745 93 l 257
 745 0 l 257
 681 0 l 257
65 290 m 257
 65 347 l 257
 138 347 l 257
 138 649 l 257
 120 638 73 619 60 613 c 257
 60 671 l 257
 76 678 131 704 151 722 c 257
 208 722 l 257
 208 347 l 257
 275 347 l 257
 275 290 l 257
 65 290 l 257
EndSplineSet
Validated: 1
Ligature2: "fracDiagonalFractionslookup11 subtable" one slash four
EndChar

StartChar: ordmasculine
Encoding: 186 186 297
Width: 471
VWidth: 0
GlyphClass: 2
Flags: HW
PickledData: "(dp1
S'org.pippin.gimp.org.kernagic'
p2
(dp3
S'lstem'
p4
I0
sS'rstem'
p5
I0
ssS'com.typemytype.robofont.layerData'
p6
(dp7
S'b'
(dp8
S'name'
p9
S'ordmasculine'
p10
sS'lib'
p11
(dp12
sS'unicodes'
p13
(tsS'width'
p14
I965
sS'contours'
p15
(tsS'components'
p16
(tsS'anchors'
p17
(tsssS'org.robofab.postScriptHintData'
p18
(dp19
s."
LayerCount: 2
Fore
SplineSet
333 534 m 256
 333 618 299 669 234 669 c 256
 171 669 139 619 139 535 c 256
 139 452 171 404 234 404 c 256
 301 404 333 452 333 534 c 256
69 535 m 256
 69 644 127 725 234 725 c 256
 344 725 400 645 400 535 c 256
 400 430 336 348 234 348 c 256
 127 348 69 428 69 535 c 256
EndSplineSet
Validated: 1
EndChar

StartChar: oslash
Encoding: 248 248 298
Width: 588
VWidth: 0
GlyphClass: 2
Flags: HW
PickledData: "(dp1
S'org.pippin.gimp.org.kernagic'
p2
(dp3
S'lstem'
p4
I0
sS'rstem'
p5
I0
ssS'com.typemytype.robofont.layerData'
p6
(dp7
sS'org.robofab.postScriptHintData'
p8
(dp9
s."
LayerCount: 2
Fore
SplineSet
93 -61 m 257
 445 605 l 257
 480 586 l 257
 125 -80 l 257
 93 -61 l 257
EndSplineSet
Refer: 283 111 N 1 0 0 1 0 0 2
Validated: 5
EndChar

StartChar: p
Encoding: 112 112 301
Width: 596
VWidth: 0
GlyphClass: 2
Flags: HW
PickledData: "(dp1
S'org.pippin.gimp.org.kernagic'
p2
(dp3
S'lstem'
p4
I0
sS'rstem'
p5
I0
ssS'com.fontlab.hintData'
p6
(dp7
S'vhints'
p8
((dp9
S'position'
p10
I193
sS'width'
p11
I122
s(dp12
g10
I193
sg11
I97
s(dp13
g10
I1009
sg11
I122
stp14
sS'hhints'
p15
((dp16
g10
I-19
sg11
I92
s(dp17
g10
I982
sg11
I92
stp18
ssS'com.typemytype.robofont.layerData'
p19
(dp20
sS'org.robofab.postScriptHintData'
p21
(dp22
s."
HStem: -9 45 479 45
VStem: 94 60 94 47 493 60
LayerCount: 2
Fore
SplineSet
308 56 m 256
 405 56 448 135 448 265 c 256
 448 387 416 474 317 474 c 256
 213 474 169 396 168 281 c 257
 168 122 l 257
 200 78 251 56 308 56 c 256
83 -224 m 257
 83 528 l 257
 157 528 l 257
 166 419 l 257
 192 499 251 540 330 540 c 256
 473 540 539 429 539 264 c 256
 539 103 454 -10 315 -10 c 256
 251 -10 202 10 169 43 c 257
 171 -33 l 257
 171 -224 l 257
 83 -224 l 257
EndSplineSet
Validated: 8388609
EndChar

StartChar: paragraph
Encoding: 182 182 302
Width: 559
VWidth: 0
GlyphClass: 2
Flags: HW
PickledData: "(dp1
S'org.pippin.gimp.org.kernagic'
p2
(dp3
S'lstem'
p4
I0
sS'rstem'
p5
I0
ssS'com.typemytype.robofont.layerData'
p6
(dp7
sS'org.robofab.postScriptHintData'
p8
(dp9
s."
LayerCount: 2
Fore
SplineSet
315 650 m 257
 315 -100 l 257
 252 -100 l 257
 252 373 l 257
 115 373 64 456 64 542 c 256
 64 625 112 711 272 711 c 258
 446 711 l 257
 446 -100 l 257
 383 -100 l 257
 383 650 l 257
 315 650 l 257
EndSplineSet
Validated: 1
EndChar

StartChar: parenleft
Encoding: 40 40 303
Width: 378
VWidth: 0
GlyphClass: 2
Flags: HW
PickledData: "(dp1
S'org.pippin.gimp.org.kernagic'
p2
(dp3
S'lstem'
p4
I0
sS'rstem'
p5
I0
ssS'com.typemytype.robofont.layerData'
p6
(dp7
S'b'
(dp8
S'name'
p9
S'parenright'
p10
sS'lib'
p11
(dp12
sS'unicodes'
p13
(tsS'width'
p14
I766
sS'contours'
p15
(tsS'components'
p16
(tsS'anchors'
p17
(tsssS'org.robofab.postScriptHintData'
p18
(dp19
s."
LayerCount: 2
Fore
SplineSet
104 331 m 256
 104 491 149 647 230 777 c 257
 302 777 l 257
 302 760 l 257
 218 622 181 481 181 331 c 256
 181 181 218 40 302 -99 c 257
 302 -115 l 257
 230 -115 l 257
 149 15 104 172 104 331 c 256
EndSplineSet
Validated: 1
EndChar

StartChar: parenright
Encoding: 41 41 304
Width: 378
VWidth: 0
GlyphClass: 2
Flags: HW
PickledData: "(dp1
S'org.pippin.gimp.org.kernagic'
p2
(dp3
S'lstem'
p4
I0
sS'rstem'
p5
I0
ssS'com.typemytype.robofont.layerData'
p6
(dp7
S'b'
(dp8
S'name'
p9
S'parenright'
p10
sS'lib'
p11
(dp12
sS'unicodes'
p13
(tsS'width'
p14
I766
sS'contours'
p15
(tsS'components'
p16
(tsS'anchors'
p17
(tsssS'org.robofab.postScriptHintData'
p18
(dp19
s."
LayerCount: 2
Fore
SplineSet
278 331 m 256
 278 172 233 15 152 -115 c 257
 80 -115 l 257
 80 -99 l 257
 164 40 201 181 201 331 c 256
 201 481 164 622 80 760 c 257
 80 777 l 257
 152 777 l 257
 233 647 278 491 278 331 c 256
EndSplineSet
Validated: 1
EndChar

StartChar: partialdiff
Encoding: 8706 8706 305
Width: 577
VWidth: 0
GlyphClass: 2
Flags: HW
PickledData: "(dp1
S'org.robofab.postScriptHintData'
p2
(dp3
s."
LayerCount: 2
Fore
SplineSet
237 43 m 256
 361 43 415 265 424 405 c 257
 264 399 178 234 178 129 c 256
 178 79 197 43 237 43 c 256
230 -9 m 256
 128 -9 80 58 80 141 c 256
 80 275 204 449 426 450 c 257
 426 457 427 465 427 472 c 256
 427 614 344 699 238 699 c 256
 206 699 170 691 135 674 c 257
 116 723 l 257
 164 749 213 762 258 762 c 256
 398 762 511 643 511 443 c 256
 511 186 397 -9 230 -9 c 256
EndSplineSet
Validated: 1
EndChar

StartChar: percent
Encoding: 37 37 306
Width: 792
VWidth: 0
GlyphClass: 2
Flags: HW
PickledData: "(dp1
S'org.pippin.gimp.org.kernagic'
p2
(dp3
S'lstem'
p4
I0
sS'rstem'
p5
I0
ssS'com.typemytype.robofont.layerData'
p6
(dp7
S'b'
(dp8
S'name'
p9
S'percent'
p10
sS'lib'
p11
(dp12
sS'unicodes'
p13
(tsS'width'
p14
I1563
sS'contours'
p15
(tsS'components'
p16
(tsS'anchors'
p17
(tsssS'org.robofab.postScriptHintData'
p18
(dp19
s."
LayerCount: 2
Fore
SplineSet
565 0 m 256
 454 0 414 80 414 186 c 256
 414 292 456 374 565 374 c 256
 677 374 717 294 717 186 c 256
 717 80 676 0 565 0 c 256
566 49 m 256
 640 49 656 110 656 187 c 256
 656 267 640 322 566 322 c 256
 491 322 476 264 476 187 c 256
 476 108 491 49 566 49 c 256
137 0 m 257
 543 714 l 257
 608 714 l 257
 207 0 l 257
 137 0 l 257
181 349 m 256
 70 349 33 431 33 537 c 256
 33 643 72 724 181 724 c 256
 293 724 333 645 333 537 c 256
 333 431 292 349 181 349 c 256
182 400 m 256
 256 400 271 461 271 538 c 256
 271 618 256 673 182 673 c 256
 107 673 91 615 91 538 c 256
 91 458 107 400 182 400 c 256
EndSplineSet
Validated: 1
EndChar

StartChar: period
Encoding: 46 46 307
Width: 309
VWidth: 0
GlyphClass: 2
Flags: HW
PickledData: "(dp1
S'org.pippin.gimp.org.kernagic'
p2
(dp3
S'lstem'
p4
I0
sS'rstem'
p5
I0
ssS'com.typemytype.robofont.layerData'
p6
(dp7
S'b'
(dp8
S'name'
p9
S'period'
p10
sS'lib'
p11
(dp12
sS'unicodes'
p13
(tsS'width'
p14
I624
sS'contours'
p15
(tsS'components'
p16
(tsS'anchors'
p17
(tsssS'org.robofab.postScriptHintData'
p18
(dp19
s."
LayerCount: 2
Fore
SplineSet
156 -5 m 256
 119 -5 104 16 104 55 c 256
 104 93 119 113 156 113 c 256
 191 113 208 93 208 55 c 256
 208 16 191 -5 156 -5 c 256
EndSplineSet
Validated: 1
EndChar

StartChar: periodcentered
Encoding: 183 183 308
Width: 316
VWidth: 0
GlyphClass: 2
Flags: HW
PickledData: "(dp1
S'org.pippin.gimp.org.kernagic'
p2
(dp3
S'lstem'
p4
I0
sS'rstem'
p5
I0
ssS'com.typemytype.robofont.layerData'
p6
(dp7
S'b'
(dp8
S'name'
p9
S'periodcentered'
p10
sS'lib'
p11
(dp12
sS'unicodes'
p13
(tsS'width'
p14
I653
sS'contours'
p15
(tsS'components'
p16
(tsS'anchors'
p17
(tsssS'org.robofab.postScriptHintData'
p18
(dp19
s."
LayerCount: 2
Fore
SplineSet
163 248 m 256
 130 248 106 271 106 305 c 256
 106 338 130 360 163 360 c 256
 196 360 220 338 220 305 c 256
 220 271 196 248 163 248 c 256
EndSplineSet
Validated: 1
EndChar

StartChar: perthousand
Encoding: 8240 8240 309
Width: 1142
VWidth: 0
GlyphClass: 2
Flags: HW
PickledData: "(dp1
S'org.pippin.gimp.org.kernagic'
p2
(dp3
S'lstem'
p4
I0
sS'rstem'
p5
I0
ssS'com.typemytype.robofont.layerData'
p6
(dp7
S'b'
(dp8
S'name'
p9
S'perthousand'
p10
sS'lib'
p11
(dp12
sS'unicodes'
p13
(tsS'width'
p14
I2251
sS'contours'
p15
(tsS'components'
p16
(tsS'anchors'
p17
(tsssS'org.robofab.postScriptHintData'
p18
(dp19
s."
LayerCount: 2
Fore
SplineSet
915 0 m 256
 804 0 763 80 763 186 c 256
 763 292 806 374 915 374 c 256
 1027 374 1066 294 1066 186 c 256
 1066 80 1026 0 915 0 c 256
916 49 m 256
 990 49 1005 110 1005 187 c 256
 1005 267 990 322 916 322 c 256
 841 322 825 264 825 187 c 256
 825 108 841 49 916 49 c 256
EndSplineSet
Refer: 306 37 N 1 0 0 1 7 0 2
Validated: 1
EndChar

StartChar: pi
Encoding: 960 960 310
Width: 705
VWidth: 0
GlyphClass: 2
Flags: HW
PickledData: "(dp1
S'org.robofab.postScriptHintData'
p2
(dp3
sS'com.typemytype.robofont.layerData'
p4
(dp5
s."
LayerCount: 2
Fore
SplineSet
558 -6 m 256
 471 -6 441 47 441 137 c 256
 441 216 461 329 477 442 c 257
 292 442 l 257
 279 162 l 258
 274 53 239 0 66 0 c 257
 66 56 l 257
 126 56 189 86 203 194 c 258
 234 442 l 257
 173 442 l 258
 133 442 114 414 108 376 c 257
 60 376 l 257
 60 484 96 528 215 528 c 258
 659 528 l 257
 659 442 l 257
 542 442 l 257
 530 350 524 268 524 212 c 256
 524 114 545 69 584 69 c 256
 605 69 632 81 646 86 c 257
 646 22 l 257
 629 5 597 -6 558 -6 c 256
EndSplineSet
Validated: 1
EndChar

StartChar: plus
Encoding: 43 43 311
Width: 557
VWidth: 0
GlyphClass: 2
Flags: HW
PickledData: "(dp1
S'org.pippin.gimp.org.kernagic'
p2
(dp3
S'lstem'
p4
I0
sS'rstem'
p5
I0
ssS'com.typemytype.robofont.layerData'
p6
(dp7
S'b'
(dp8
S'name'
p9
S'plus'
p10
sS'lib'
p11
(dp12
sS'unicodes'
p13
(tsS'width'
p14
I1136
sS'contours'
p15
(tsS'components'
p16
(tsS'anchors'
p17
(tsssS'org.robofab.postScriptHintData'
p18
(dp19
s."
LayerCount: 2
Fore
SplineSet
232 568 m 257
 319 568 l 257
 319 383 l 257
 493 383 l 257
 493 299 l 257
 319 299 l 257
 319 111 l 257
 232 111 l 257
 232 299 l 257
 57 299 l 257
 57 383 l 257
 232 383 l 257
 232 568 l 257
EndSplineSet
Validated: 1
EndChar

StartChar: plusminus
Encoding: 177 177 312
Width: 554
VWidth: 0
GlyphClass: 2
Flags: HW
PickledData: "(dp1
S'org.pippin.gimp.org.kernagic'
p2
(dp3
S'lstem'
p4
I0
sS'rstem'
p5
I0
ssS'com.typemytype.robofont.layerData'
p6
(dp7
sS'org.robofab.postScriptHintData'
p8
(dp9
s."
LayerCount: 2
Fore
SplineSet
51 62 m 257
 505 62 l 257
 505 0 l 257
 51 0 l 257
 51 62 l 257
241 550 m 257
 307 550 l 257
 307 363 l 257
 485 363 l 257
 485 300 l 257
 308 300 l 257
 308 108 l 257
 241 108 l 257
 241 300 l 257
 61 300 l 257
 61 363 l 257
 241 363 l 257
 241 550 l 257
EndSplineSet
Validated: 1
EndChar

StartChar: product
Encoding: 8719 8719 313
Width: 750
VWidth: 0
GlyphClass: 2
Flags: HW
PickledData: "(dp1
S'org.pippin.gimp.org.kernagic'
p2
(dp3
S'lstem'
p4
I0
sS'rstem'
p5
I0
ssS'com.typemytype.robofont.layerData'
p6
(dp7
S'b'
(dp8
S'name'
p9
S'product'
p10
sS'lib'
p11
(dp12
sS'unicodes'
p13
(tsS'width'
p14
I1533
sS'contours'
p15
(tsS'components'
p16
(tsS'anchors'
p17
(tsssS'org.robofab.postScriptHintData'
p18
(dp19
s."
LayerCount: 2
Fore
SplineSet
97 732 m 257
 655 732 l 257
 655 0 l 257
 570 0 l 257
 570 659 l 257
 182 659 l 257
 182 0 l 257
 97 0 l 257
 97 732 l 257
EndSplineSet
Validated: 1
EndChar

StartChar: q
Encoding: 113 113 314
Width: 593
VWidth: 0
GlyphClass: 2
Flags: HW
PickledData: "(dp1
S'org.pippin.gimp.org.kernagic'
p2
(dp3
S'lstem'
p4
I0
sS'rstem'
p5
I0
ssS'com.typemytype.robofont.layerData'
p6
(dp7
sS'org.robofab.postScriptHintData'
p8
(dp9
s."
LayerCount: 2
Fore
SplineSet
294 56 m 256
 351 56 400 76 428 114 c 257
 428 407 l 257
 396 452 350 474 293 474 c 256
 196 474 149 395 149 266 c 256
 149 132 195 56 294 56 c 256
287 -10 m 256
 138 -10 58 101 58 266 c 256
 58 430 144 540 288 540 c 256
 356 540 405 510 435 470 c 257
 439 528 l 257
 514 528 l 257
 514 -224 l 257
 425 -224 l 257
 425 -11 l 257
 427 43 l 257
 387 2 331 -10 287 -10 c 256
EndSplineSet
Validated: 1
EndChar

StartChar: question
Encoding: 63 63 315
Width: 450
VWidth: 0
GlyphClass: 2
Flags: HW
PickledData: "(dp1
S'org.pippin.gimp.org.kernagic'
p2
(dp3
S'lstem'
p4
I0
sS'rstem'
p5
I0
ssS'com.typemytype.robofont.layerData'
p6
(dp7
sS'org.robofab.postScriptHintData'
p8
(dp9
s."
LayerCount: 2
Fore
SplineSet
181 -7 m 256
 141 -7 123 21 123 51 c 256
 123 80 141 108 181 108 c 256
 220 108 238 80 238 51 c 256
 238 20 220 -7 181 -7 c 256
162 210 m 257
 172 363 289 445 289 549 c 256
 289 617 255 651 194 651 c 256
 144 651 97 624 75 609 c 257
 57 676 l 257
 94 705 144 725 205 725 c 256
 294 725 374 676 374 556 c 256
 374 408 255 384 202 209 c 257
 162 210 l 257
EndSplineSet
Validated: 1
EndChar

StartChar: quotedbl
Encoding: 34 34 317
Width: 343
VWidth: 0
GlyphClass: 2
Flags: HW
PickledData: "(dp1
S'org.robofab.postScriptHintData'
p2
(dp3
sS'com.typemytype.robofont.layerData'
p4
(dp5
s."
LayerCount: 2
Fore
SplineSet
229 486 m 257
 199 747 l 257
 292 747 l 257
 273 486 l 257
 229 486 l 257
83 486 m 257
 52 747 l 257
 145 747 l 257
 126 486 l 257
 83 486 l 257
EndSplineSet
Validated: 1
EndChar

StartChar: quotedblbase
Encoding: 8222 8222 318
Width: 373
VWidth: 0
GlyphClass: 2
Flags: HW
PickledData: "(dp1
S'org.robofab.postScriptHintData'
p2
(dp3
s."
LayerCount: 2
Fore
SplineSet
205 -153 m 257
 228 79 l 257
 315 79 l 257
 262 -153 l 257
 205 -153 l 257
53 -153 m 257
 78 79 l 257
 164 79 l 257
 112 -153 l 257
 53 -153 l 257
EndSplineSet
Validated: 1
EndChar

StartChar: quotedblleft
Encoding: 8220 8220 319
Width: 442
VWidth: 0
GlyphClass: 2
Flags: HW
PickledData: "(dp1
S'org.robofab.postScriptHintData'
p2
(dp3
sS'com.typemytype.robofont.layerData'
p4
(dp5
s."
LayerCount: 2
Fore
SplineSet
250 498 m 257
 303 734 l 257
 367 734 l 257
 344 498 l 257
 250 498 l 257
77 498 m 257
 131 734 l 257
 194 734 l 257
 171 498 l 257
 77 498 l 257
EndSplineSet
Validated: 1
EndChar

StartChar: quotedblright
Encoding: 8221 8221 320
Width: 442
VWidth: 0
GlyphClass: 2
Flags: HW
PickledData: "(dp1
S'org.robofab.postScriptHintData'
p2
(dp3
sS'com.typemytype.robofont.layerData'
p4
(dp5
s."
LayerCount: 2
Fore
SplineSet
77 498 m 257
 100 734 l 257
 194 734 l 257
 141 498 l 257
 77 498 l 257
250 498 m 257
 272 734 l 257
 367 734 l 257
 313 498 l 257
 250 498 l 257
EndSplineSet
Validated: 1
EndChar

StartChar: quoteleft
Encoding: 8216 8216 321
Width: 256
VWidth: 0
GlyphClass: 2
Flags: HW
PickledData: "(dp1
S'org.robofab.postScriptHintData'
p2
(dp3
sS'com.typemytype.robofont.layerData'
p4
(dp5
s."
LayerCount: 2
Fore
SplineSet
194 734 m 257
 171 498 l 257
 77 498 l 257
 131 734 l 257
 194 734 l 257
EndSplineSet
Validated: 1
EndChar

StartChar: quoteright
Encoding: 8217 8217 322
Width: 256
VWidth: 0
GlyphClass: 2
Flags: HW
PickledData: "(dp1
S'org.robofab.postScriptHintData'
p2
(dp3
sS'com.typemytype.robofont.layerData'
p4
(dp5
s."
LayerCount: 2
Fore
SplineSet
77 498 m 257
 100 734 l 257
 194 734 l 257
 141 498 l 257
 77 498 l 257
EndSplineSet
Validated: 1
EndChar

StartChar: quotesinglbase
Encoding: 8218 8218 323
Width: 224
VWidth: 0
GlyphClass: 2
Flags: HW
PickledData: "(dp1
S'org.robofab.postScriptHintData'
p2
(dp3
s."
LayerCount: 2
Fore
SplineSet
48 -153 m 257
 75 79 l 257
 163 79 l 257
 108 -153 l 257
 48 -153 l 257
EndSplineSet
Validated: 1
EndChar

StartChar: quotesingle
Encoding: 39 39 324
Width: 202
VWidth: 0
GlyphClass: 2
Flags: HW
PickledData: "(dp1
S'org.robofab.postScriptHintData'
p2
(dp3
s."
LayerCount: 2
Fore
SplineSet
74 467 m 257
 50 734 l 257
 139 734 l 257
 125 467 l 257
 74 467 l 257
EndSplineSet
Validated: 1
EndChar

StartChar: r
Encoding: 114 114 325
Width: 382
VWidth: 0
GlyphClass: 2
Flags: HW
PickledData: "(dp1
S'org.pippin.gimp.org.kernagic'
p2
(dp3
S'lstem'
p4
I0
sS'rstem'
p5
I352
ssS'com.fontlab.hintData'
p6
(dp7
S'vhints'
p8
((dp9
S'position'
p10
I193
sS'width'
p11
I122
s(dp12
g10
I193
sg11
I92
stp13
sS'hhints'
p14
((dp15
g10
I974
sg11
I94
stp16
ssS'com.typemytype.robofont.layerData'
p17
(dp18
sS'org.robofab.postScriptHintData'
p19
(dp20
s."
HStem: 476 46
VStem: 94 60 94 45
AnchorPoint: "bot" 145 0 basechar 0
LayerCount: 2
Fore
SplineSet
84 0 m 257
 84 528 l 257
 156 528 l 257
 165 418 l 257
 201 505 257 535 317 535 c 256
 331 535 342 534 355 532 c 257
 349 462 l 257
 330 462 l 257
 329 462 l 258
 223 462 172 390 172 300 c 258
 172 0 l 257
 84 0 l 257
EndSplineSet
Validated: 8388609
EndChar

StartChar: radical
Encoding: 8730 8730 327
Width: 565
VWidth: 0
GlyphClass: 2
Flags: HW
PickledData: "(dp1
S'org.pippin.gimp.org.kernagic'
p2
(dp3
S'lstem'
p4
I0
sS'rstem'
p5
I0
ssS'com.typemytype.robofont.layerData'
p6
(dp7
S'b'
(dp8
S'name'
p9
S'radical'
p10
sS'lib'
p11
(dp12
sS'unicodes'
p13
(tsS'width'
p14
I1136
sS'contours'
p15
(tsS'components'
p16
(tsS'anchors'
p17
(tsssS'org.robofab.postScriptHintData'
p18
(dp19
s."
LayerCount: 2
Fore
SplineSet
487 833 m 257
 549 833 l 257
 336 -80 l 257
 263 -80 l 257
 104 365 l 257
 31 350 l 257
 24 409 l 257
 151 439 l 257
 198 302 250 170 293 29 c 257
 352 279 427 583 487 833 c 257
EndSplineSet
Validated: 1
EndChar

StartChar: registered
Encoding: 174 174 330
Width: 903
VWidth: 0
GlyphClass: 2
Flags: HW
PickledData: "(dp1
S'org.pippin.gimp.org.kernagic'
p2
(dp3
S'lstem'
p4
I0
sS'rstem'
p5
I0
ssS'com.typemytype.robofont.layerData'
p6
(dp7
sS'org.robofab.postScriptHintData'
p8
(dp9
s."
LayerCount: 2
Fore
SplineSet
448 -11 m 256
 265 -11 84 117 84 355 c 256
 84 593 265 722 448 722 c 256
 632 722 813 593 813 355 c 256
 813 117 632 -11 448 -11 c 256
448 33 m 256
 608 33 761 147 761 355 c 256
 761 562 608 678 448 678 c 256
 288 678 138 563 138 355 c 256
 138 147 288 33 448 33 c 256
364 399 m 257
 465 399 l 258
 533 399 556 419 556 471 c 256
 556 532 527 540 449 540 c 258
 364 540 l 257
 364 399 l 257
307 144 m 257
 307 589 l 257
 458 589 l 258
 569 589 611 555 611 474 c 256
 611 409 582 366 518 358 c 257
 525 348 627 144 627 144 c 257
 564 144 l 257
 564 144 465 347 461 352 c 257
 363 352 l 257
 363 144 l 257
 307 144 l 257
EndSplineSet
Validated: 1
EndChar

StartChar: ring
Encoding: 730 730 331
Width: 347
VWidth: 0
GlyphClass: 4
Flags: HW
PickledData: "(dp1
S'org.robofab.postScriptHintData'
p2
(dp3
sS'com.typemytype.robofont.layerData'
p4
(dp5
s."
LayerCount: 2
Fore
SplineSet
168 585 m 256
 113 585 75 626 75 676 c 256
 75 726 113 767 168 767 c 256
 224 767 263 726 263 676 c 256
 263 626 223 585 168 585 c 256
168 625 m 256
 196 625 216 649 216 676 c 256
 216 702 196 726 168 726 c 256
 140 726 122 702 122 676 c 256
 122 648 140 625 168 625 c 256
EndSplineSet
Validated: 1
EndChar

StartChar: s
Encoding: 115 115 332
Width: 479
VWidth: 0
GlyphClass: 2
Flags: HW
PickledData: "(dp1
S'org.pippin.gimp.org.kernagic'
p2
(dp3
S'lstem'
p4
I168
sS'rstem'
p5
I620
ssS'org.robofab.postScriptHintData'
p6
(dp7
sS'com.typemytype.robofont.guides'
p8
((dp9
S'y'
I381
sS'x'
I77
sS'magnetic'
p10
I5
sS'angle'
p11
F90
sS'isGlobal'
p12
I00
stp13
sS'com.typemytype.robofont.layerData'
p14
(dp15
sS'com.fontlab.hintData'
p16
(dp17
S'vhints'
p18
((dp19
S'position'
p20
I142
sS'width'
p21
I107
s(dp22
g20
I738
sg21
I104
stp23
sS'hhints'
p24
((dp25
g20
I-19
sg21
I92
s(dp26
g20
I982
sg21
I92
stp27
ss."
HStem: -9 45 479 45
VStem: 69 52 360 51
AnchorPoint: "bot" 233 0 basechar 0
LayerCount: 2
Fore
SplineSet
353 150 m 256
 353 184 342 207 261 232 c 258
 201 251 l 258
 73 291 57 335 57 398 c 256
 57 486 130 540 248 540 c 256
 333 540 393 507 424 463 c 257
 375 423 l 257
 371 423 l 257
 347 452 306 473 249 473 c 256
 175 473 144 444 144 397 c 256
 144 361 158 344 230 321 c 258
 289 303 l 257
 415 262 434 212 434 153 c 256
 434 38 350 -10 247 -10 c 256
 163 -10 85 19 42 74 c 257
 88 119 l 257
 95 119 l 257
 137 70 198 55 247 55 c 256
 315 55 353 86 353 150 c 256
EndSplineSet
Validated: 1
EndChar

StartChar: section
Encoding: 167 167 338
Width: 524
VWidth: 0
GlyphClass: 2
Flags: HW
PickledData: "(dp1
S'org.pippin.gimp.org.kernagic'
p2
(dp3
S'lstem'
p4
I0
sS'rstem'
p5
I0
ssS'com.typemytype.robofont.layerData'
p6
(dp7
S'b'
(dp8
S'name'
p9
S'section'
p10
sS'lib'
p11
(dp12
sS'unicodes'
p13
(tsS'width'
p14
I1079
sS'contours'
p15
(tsS'components'
p16
(tsS'anchors'
p17
(tsssS'org.robofab.postScriptHintData'
p18
(dp19
s."
LayerCount: 2
Fore
SplineSet
337 280 m 257
 350 294 357 314 357 338 c 256
 357 374 336 399 262 423 c 256
 203 443 194 446 190 448 c 257
 168 435 159 416 159 388 c 256
 159 347 175 334 242 312 c 256
 306 292 324 286 337 280 c 257
252 -10 m 256
 199 -10 141 5 92 29 c 257
 92 101 l 257
 148 74 200 56 255 56 c 258
 260 56 l 258
 319 56 354 87 354 142 c 256
 354 180 334 205 204 247 c 256
 107 279 82 320 82 383 c 256
 82 423 97 457 125 482 c 257
 92 508 81 541 81 581 c 256
 81 668 144 724 253 724 c 256
 314 724 367 710 412 687 c 257
 392 624 l 257
 363 639 315 658 262 658 c 256
 187 658 162 629 162 584 c 256
 162 544 176 532 293 494 c 256
 405 458 431 417 431 341 c 256
 431 299 417 267 396 243 c 257
 422 217 431 186 431 143 c 256
 431 33 349 -10 252 -10 c 256
EndSplineSet
Validated: 1
EndChar

StartChar: semicolon
Encoding: 59 59 339
Width: 349
VWidth: 0
GlyphClass: 2
Flags: HW
PickledData: "(dp1
S'org.pippin.gimp.org.kernagic'
p2
(dp3
S'lstem'
p4
I0
sS'rstem'
p5
I0
ssS'com.typemytype.robofont.layerData'
p6
(dp7
sS'org.robofab.postScriptHintData'
p8
(dp9
s."
LayerCount: 2
Fore
SplineSet
182 406 m 256
 141 406 121 436 121 468 c 256
 121 500 141 530 182 530 c 256
 223 530 242 500 242 468 c 256
 242 436 223 406 182 406 c 256
121 -149 m 257
 121 -149 141 114 141 117 c 257
 230 117 l 257
 230 72 l 257
 173 -149 l 257
 121 -149 l 257
EndSplineSet
Validated: 1
EndChar

StartChar: seven
Encoding: 55 55 340
Width: 615
VWidth: 0
GlyphClass: 2
Flags: HW
PickledData: "(dp1
S'org.pippin.gimp.org.kernagic'
p2
(dp3
S'lstem'
p4
I0
sS'rstem'
p5
I0
ssS'com.typemytype.robofont.layerData'
p6
(dp7
sS'org.robofab.postScriptHintData'
p8
(dp9
s."
LayerCount: 2
Fore
SplineSet
168 0 m 257
 430 639 l 257
 92 639 l 257
 83 711 l 257
 525 711 l 257
 525 646 l 257
 259 0 l 257
 168 0 l 257
EndSplineSet
Validated: 1
EndChar

StartChar: six
Encoding: 54 54 341
Width: 615
VWidth: 0
GlyphClass: 2
Flags: HW
PickledData: "(dp1
S'org.pippin.gimp.org.kernagic'
p2
(dp3
S'lstem'
p4
I0
sS'rstem'
p5
I0
ssS'com.typemytype.robofont.layerData'
p6
(dp7
sS'org.robofab.postScriptHintData'
p8
(dp9
s."
LayerCount: 2
Fore
SplineSet
316 61 m 256
 411 61 463 134 463 217 c 256
 463 304 411 368 319 368 c 256
 257 368 170 330 170 215 c 256
 170 132 221 61 316 61 c 256
318 -10 m 256
 169 -10 83 99 83 220 c 256
 83 325 121 394 187 484 c 258
 353 711 l 257
 448 711 l 257
 448 700 l 257
 371 595 294 490 217 385 c 257
 248 412 291 436 350 436 c 256
 462 436 551 349 551 217 c 256
 551 91 461 -10 318 -10 c 256
EndSplineSet
Validated: 1
EndChar

StartChar: slash
Encoding: 47 47 342
Width: 473
VWidth: 0
GlyphClass: 2
Flags: HW
PickledData: "(dp1
S'org.pippin.gimp.org.kernagic'
p2
(dp3
S'lstem'
p4
I0
sS'rstem'
p5
I0
ssS'com.typemytype.robofont.layerData'
p6
(dp7
S'b'
(dp8
S'name'
p9
S'slash'
p10
sS'lib'
p11
(dp12
sS'unicodes'
p13
(tsS'width'
p14
I965
sS'contours'
p15
(tsS'components'
p16
(tsS'anchors'
p17
(tsssS'org.robofab.postScriptHintData'
p18
(dp19
s."
LayerCount: 2
Fore
SplineSet
62 -71 m 257
 362 762 l 257
 437 762 l 257
 136 -71 l 257
 62 -71 l 257
EndSplineSet
Validated: 1
EndChar

StartChar: slashbar
Encoding: 65541 -1 343
Width: 416
VWidth: 0
GlyphClass: 4
Flags: HW
PickledData: "(dp1
S'org.pippin.gimp.org.kernagic'
p2
(dp3
S'lstem'
p4
I0
sS'rstem'
p5
I0
ssS'com.typemytype.robofont.layerData'
p6
(dp7
S'b'
(dp8
S'name'
p9
S'slashbar'
p10
sS'lib'
p11
(dp12
sS'unicodes'
p13
(tsS'width'
p14
I908
sS'contours'
p15
(tsS'components'
p16
(tsS'anchors'
p17
(tsssS'org.robofab.postScriptHintData'
p18
(dp19
s."
LayerCount: 2
Fore
SplineSet
90 237 m 257
 90 302 l 257
 379 461 l 257
 379 396 l 257
 90 237 l 257
EndSplineSet
Validated: 1
EndChar

StartChar: sterling
Encoding: 163 163 345
Width: 558
VWidth: 0
GlyphClass: 2
Flags: HW
PickledData: "(dp1
S'org.pippin.gimp.org.kernagic'
p2
(dp3
S'lstem'
p4
I0
sS'rstem'
p5
I0
ssS'com.typemytype.robofont.layerData'
p6
(dp7
S'b'
(dp8
S'name'
p9
S'sterling'
p10
sS'lib'
p11
(dp12
sS'unicodes'
p13
(tsS'width'
p14
I1136
sS'contours'
p15
((dp16
S'points'
p17
((dp18
S'segmentType'
p19
S'line'
p20
sS'x'
I20
sS'smooth'
p21
I00
sS'y'
I0
s(dp22
g19
S'line'
p23
sS'x'
I8
sg21
I00
sS'y'
I115
s(dp24
g19
S'line'
p25
sS'x'
I180
sg21
I00
sS'y'
I132
s(dp26
g19
S'line'
p27
sS'x'
I180
sg21
I00
sS'y'
I683
s(dp28
g19
S'line'
p29
sS'x'
I8
sg21
I00
sS'y'
I683
s(dp30
g19
S'line'
p31
sS'x'
I8
sg21
I00
sS'y'
I806
s(dp32
g19
S'line'
p33
sS'x'
I180
sg21
I00
sS'y'
I806
s(dp34
g19
S'line'
p35
sS'x'
I180
sg21
I01
sS'y'
I920
s(dp36
S'y'
I1183
sS'x'
I180
sg21
I00
s(dp37
S'y'
I1476
sS'x'
I245
sg21
I00
s(dp38
g19
S'curve'
p39
sS'x'
I598
sg21
I01
sS'y'
I1476
s(dp40
S'y'
I1476
sS'x'
I742
sg21
I00
s(dp41
S'y'
I1421
sS'x'
I854
sg21
I00
s(dp42
g19
S'curve'
p43
sS'x'
I939
sg21
I00
sS'y'
I1347
s(dp44
g19
S'line'
p45
sS'x'
I871
sg21
I00
sS'y'
I1229
s(dp46
S'y'
I1297
sS'x'
I785
sg21
I00
s(dp47
S'y'
I1334
sS'x'
I700
sg21
I00
s(dp48
g19
S'curve'
p49
sS'x'
I598
sg21
I01
sS'y'
I1334
s(dp50
S'y'
I1334
sS'x'
I397
sg21
I00
s(dp51
S'y'
I1179
sS'x'
I356
sg21
I00
s(dp52
g19
S'curve'
p53
sS'x'
I356
sg21
I01
sS'y'
I949
s(dp54
g19
S'line'
p55
sS'x'
I356
sg21
I00
sS'y'
I806
s(dp56
g19
S'line'
p57
sS'x'
I739
sg21
I00
sS'y'
I806
s(dp58
g19
S'line'
p59
sS'x'
I739
sg21
I00
sS'y'
I683
s(dp60
g19
S'line'
p61
sS'x'
I356
sg21
I00
sS'y'
I683
s(dp62
g19
S'line'
p63
sS'x'
I356
sg21
I00
sS'y'
I134
s(dp64
g19
S'line'
p65
sS'x'
I953
sg21
I00
sS'y'
I134
s(dp66
g19
S'line'
p67
sS'x'
I940
sg21
I00
sS'y'
I0
stp68
stp69
sS'components'
p70
(tsS'anchors'
p71
(tsssS'org.robofab.postScriptHintData'
p72
(dp73
s."
LayerCount: 2
Fore
SplineSet
214 467 m 258
 214 396 l 257
 398 396 l 257
 398 333 l 257
 214 333 l 257
 214 71 l 257
 501 71 l 257
 496 0 l 257
 42 0 l 257
 36 61 l 257
 120 70 l 257
 120 333 l 257
 35 333 l 257
 35 396 l 257
 120 396 l 257
 120 467 l 258
 120 599 164 724 326 724 c 256
 413 724 465 688 497 657 c 257
 464 598 l 257
 456 598 l 257
 422 625 391 648 337 648 c 256
 256 648 214 589 214 467 c 258
EndSplineSet
Validated: 1
EndChar

StartChar: t
Encoding: 116 116 347
Width: 390
VWidth: 0
GlyphClass: 2
Flags: HW
PickledData: "(dp1
S'org.pippin.gimp.org.kernagic'
p2
(dp3
S'lstem'
p4
I189
sS'rstem'
p5
I480
ssS'com.fontlab.hintData'
p6
(dp7
S'vhints'
p8
((dp9
S'position'
p10
I244
sS'width'
p11
I122
s(dp12
g10
I286
sg11
I80
stp13
sS'hhints'
p14
((dp15
g10
I-11
sg11
I83
stp16
ssS'com.typemytype.robofont.layerData'
p17
(dp18
sS'org.robofab.postScriptHintData'
p19
(dp20
s."
HStem: -5 41
VStem: 119 60 140 39
AnchorPoint: "bot" 232 0 basechar 0
LayerCount: 2
Fore
SplineSet
286 -4 m 258
 136 -4 113 37 113 163 c 258
 113 474 l 257
 29 474 l 257
 32 523 l 257
 115 528 l 257
 128 671 l 257
 202 676 l 257
 202 528 l 257
 342 528 l 257
 342 474 l 257
 202 474 l 257
 202 163 l 258
 202 80 207 64 286 61 c 258
 339 59 l 257
 335 -4 l 257
 286 -4 l 258
EndSplineSet
Validated: 8388609
EndChar

StartChar: thorn
Encoding: 254 254 351
Width: 591
VWidth: 0
GlyphClass: 2
Flags: HW
PickledData: "(dp1
S'org.pippin.gimp.org.kernagic'
p2
(dp3
S'lstem'
p4
I0
sS'rstem'
p5
I0
ssS'com.typemytype.robofont.layerData'
p6
(dp7
S'b'
(dp8
S'name'
p9
S'thorn'
p10
sS'lib'
p11
(dp12
sS'unicodes'
p13
(tsS'width'
p14
I1221
sS'contours'
p15
(tsS'components'
p16
(tsS'anchors'
p17
(tsssS'org.robofab.postScriptHintData'
p18
(dp19
s."
LayerCount: 2
Fore
SplineSet
54 166 m 257
 140 166 l 257
 140 -225 l 257
 54 -225 l 257
 54 166 l 257
EndSplineSet
Refer: 152 98 N 1 0 0 1 -26 0 2
Validated: 5
EndChar

StartChar: three
Encoding: 51 51 352
Width: 608
VWidth: 0
GlyphClass: 2
Flags: HW
PickledData: "(dp1
S'org.pippin.gimp.org.kernagic'
p2
(dp3
S'lstem'
p4
I0
sS'rstem'
p5
I0
ssS'com.typemytype.robofont.layerData'
p6
(dp7
sS'org.robofab.postScriptHintData'
p8
(dp9
s."
LayerCount: 2
Fore
SplineSet
377 376 m 257
 477 358 529 285 529 188 c 256
 529 81 448 -10 302 -10 c 256
 226 -10 133 19 85 103 c 257
 137 145 l 257
 144 145 l 257
 183 82 252 65 301 65 c 256
 379 65 440 105 440 191 c 256
 440 303 371 336 245 336 c 258
 221 336 l 257
 209 409 l 257
 246 409 l 258
 325 409 422 423 422 528 c 258
 422 535 l 258
 422 603 384 646 305 646 c 258
 297 646 l 258
 235 646 183 622 144 559 c 257
 134 559 l 257
 83 600 l 257
 131 700 239 721 305 721 c 256
 434 721 509 648 509 536 c 256
 509 456 467 397 377 376 c 257
EndSplineSet
Validated: 1
EndChar

StartChar: threequarters
Encoding: 190 190 353
Width: 854
VWidth: 0
GlyphClass: 3
Flags: HW
PickledData: "(dp1
S'org.pippin.gimp.org.kernagic'
p2
(dp3
S'lstem'
p4
I0
sS'rstem'
p5
I0
ssS'com.typemytype.robofont.layerData'
p6
(dp7
sS'org.robofab.postScriptHintData'
p8
(dp9
s."
LayerCount: 2
Fore
SplineSet
576 146 m 257
 702 146 l 257
 702 335 l 257
 576 146 l 257
209 0 m 257
 657 722 l 257
 725 722 l 257
 278 0 l 257
 209 0 l 257
702 0 m 257
 702 93 l 257
 506 93 l 257
 506 141 l 257
 697 419 l 257
 767 419 l 257
 767 146 l 257
 822 146 l 257
 825 93 l 257
 766 93 l 257
 766 0 l 257
 702 0 l 257
174 289 m 256
 134 289 92 302 59 326 c 257
 82 375 l 257
 111 357 145 347 174 347 c 256
 215 347 248 367 248 416 c 256
 248 463 220 486 163 486 c 257
 116 486 l 257
 116 542 l 257
 162 542 l 258
 209 542 238 566 238 605 c 256
 238 644 212 664 174 664 c 256
 148 664 116 655 83 635 c 257
 59 681 l 257
 92 707 136 721 178 721 c 256
 244 721 304 688 304 615 c 256
 304 580 285 531 234 519 c 257
 284 504 313 464 313 417 c 256
 313 330 246 289 174 289 c 256
EndSplineSet
Validated: 1
Ligature2: "fracDiagonalFractionslookup11 subtable" three slash four
EndChar

StartChar: tilde
Encoding: 732 732 354
Width: 483
VWidth: 0
GlyphClass: 4
Flags: HW
PickledData: "(dp1
S'org.robofab.postScriptHintData'
p2
(dp3
sS'com.fontlab.hintData'
p4
(dp5
S'vhints'
p6
((dp7
S'position'
p8
I169
sS'width'
p9
I63
s(dp10
g8
I657
sg9
I67
stp11
sS'hhints'
p12
((dp13
g8
I1301
sg9
I88
s(dp14
g8
I1400
sg9
I79
stp15
ssS'com.typemytype.robofont.layerData'
p16
(dp17
s."
HStem: 635 43 684 39
VStem: 83 31 321 33
LayerCount: 2
Fore
SplineSet
84 632 m 257
 84 699 115 736 166 736 c 256
 225 736 276 693 306 693 c 256
 321 693 331 704 335 736 c 257
 382 736 l 257
 382 669 353 632 308 632 c 256
 257 632 199 680 163 680 c 256
 146 680 134 667 130 632 c 257
 84 632 l 257
EndSplineSet
Validated: 1
EndChar

StartChar: trademark
Encoding: 8482 8482 355
Width: 1074
VWidth: 0
GlyphClass: 2
Flags: HW
PickledData: "(dp1
S'org.robofab.postScriptHintData'
p2
(dp3
sS'com.typemytype.robofont.layerData'
p4
(dp5
S'b'
(dp6
S'name'
p7
S'trademark'
p8
sS'lib'
p9
(dp10
sS'unicodes'
p11
(tsS'width'
p12
I2216
sS'contours'
p13
(tsS'components'
p14
(tsS'anchors'
p15
(tsss."
LayerCount: 2
Fore
SplineSet
191 255 m 257
 191 653 l 257
 40 653 l 257
 40 711 l 257
 415 711 l 257
 415 653 l 257
 262 653 l 257
 262 255 l 257
 191 255 l 257
476 255 m 257
 484 711 l 257
 559 711 l 257
 716 388 l 257
 875 711 l 257
 947 711 l 257
 956 255 l 257
 893 255 l 257
 889 615 l 257
 741 309 l 257
 690 309 l 257
 542 619 l 257
 540 255 l 257
 476 255 l 257
EndSplineSet
Validated: 1
EndChar

StartChar: two
Encoding: 50 50 356
Width: 615
VWidth: 0
GlyphClass: 2
Flags: HW
PickledData: "(dp1
S'org.pippin.gimp.org.kernagic'
p2
(dp3
S'lstem'
p4
I0
sS'rstem'
p5
I0
ssS'com.typemytype.robofont.layerData'
p6
(dp7
sS'org.robofab.postScriptHintData'
p8
(dp9
s."
LayerCount: 2
Fore
SplineSet
130 580 m 257
 121 580 l 257
 78 632 l 257
 127 688 209 721 292 721 c 256
 415 721 520 653 520 517 c 256
 520 418 485 371 389 279 c 258
 175 74 l 257
 511 74 l 257
 507 0 l 257
 85 0 l 257
 71 78 l 257
 335 337 l 258
 404 404 434 437 434 515 c 256
 434 607 365 646 290 646 c 256
 230 646 167 622 130 580 c 257
EndSplineSet
Validated: 1
EndChar

StartChar: u
Encoding: 117 117 357
Width: 592
VWidth: 0
GlyphClass: 2
Flags: HW
PickledData: "(dp1
S'org.pippin.gimp.org.kernagic'
p2
(dp3
S'lstem'
p4
I0
sS'rstem'
p5
I0
ssS'com.fontlab.hintData'
p6
(dp7
S'vhints'
p8
((dp9
S'position'
p10
I162
sS'width'
p11
I166
s(dp12
g10
I862
sg11
I166
stp13
sS'hhints'
p14
((dp15
g10
I-21
sg11
I126
stp16
ssS'com.typemytype.robofont.layerData'
p17
(dp18
sS'org.robofab.postScriptHintData'
p19
(dp20
s."
HStem: -10 62
VStem: 79 81 421 81
AnchorPoint: "bot" 278 0 basechar 0
LayerCount: 2
Fore
SplineSet
423 126 m 257
 423 528 l 257
 511 528 l 257
 511 0 l 257
 435 0 l 257
 430 66 l 257
 395 22 343 -10 265 -10 c 256
 140 -10 75 59 75 197 c 258
 75 528 l 257
 164 528 l 257
 164 199 l 258
 164 108 194 55 277 55 c 256
 360 55 403 100 423 126 c 257
EndSplineSet
Validated: 1
EndChar

StartChar: underscore
Encoding: 95 95 365
Width: 442
VWidth: 0
GlyphClass: 2
Flags: HW
PickledData: "(dp1
S'org.pippin.gimp.org.kernagic'
p2
(dp3
S'lstem'
p4
I0
sS'rstem'
p5
I0
ssS'com.typemytype.robofont.layerData'
p6
(dp7
sS'org.robofab.postScriptHintData'
p8
(dp9
s."
LayerCount: 2
Fore
SplineSet
0 -128 m 257
 0 -65 l 257
 442 -65 l 257
 442 -128 l 257
 0 -128 l 257
EndSplineSet
Validated: 1
EndChar

StartChar: uni00AD
Encoding: 173 173 367
Width: 429
VWidth: 0
GlyphClass: 2
Flags: HW
PickledData: "(dp1
S'org.robofab.postScriptHintData'
p2
(dp3
s."
LayerCount: 2
Fore
SplineSet
51 241 m 257
 51 311 l 257
 378 311 l 257
 378 241 l 257
 51 241 l 257
EndSplineSet
Validated: 1
EndChar

StartChar: uni00B2
Encoding: 178 178 368
Width: 383
VWidth: 0
GlyphClass: 2
Flags: HW
PickledData: "(dp1
S'org.robofab.postScriptHintData'
p2
(dp3
sS'com.typemytype.robofont.layerData'
p4
(dp5
s."
LayerCount: 2
Fore
SplineSet
74 316 m 257
 74 368 l 257
 125 419 151 433 213 502 c 256
 245 540 268 575 268 603 c 256
 268 647 237 677 195 677 c 256
 148 677 111 658 85 625 c 257
 55 667 l 257
 88 710 135 733 199 733 c 256
 267 733 330 687 330 604 c 256
 330 548 305 505 260 459 c 256
 221 420 218 419 165 368 c 257
 330 368 l 257
 325 316 l 257
 74 316 l 257
EndSplineSet
Validated: 1
EndChar

StartChar: uni00B3
Encoding: 179 179 369
Width: 427
VWidth: 0
GlyphClass: 2
Flags: HW
PickledData: "(dp1
S'org.robofab.postScriptHintData'
p2
(dp3
sS'com.typemytype.robofont.layerData'
p4
(dp5
s."
LayerCount: 2
Fore
SplineSet
213 307 m 256
 163 307 114 322 82 349 c 257
 107 395 l 257
 130 373 167 357 212 357 c 256
 260 357 299 381 299 429 c 256
 299 474 268 504 210 504 c 258
 208 504 l 257
 153 504 l 257
 153 552 l 257
 209 552 l 258
 270 552 293 579 293 619 c 256
 293 662 259 682 214 682 c 256
 171 682 135 668 108 646 c 257
 84 686 l 257
 117 715 169 731 222 731 c 256
 290 731 351 701 351 624 c 256
 351 576 324 540 277 529 c 257
 323 518 356 480 356 427 c 256
 356 346 288 307 213 307 c 256
EndSplineSet
Validated: 1
EndChar

StartChar: uni00B9
Encoding: 185 185 371
Width: 431
VWidth: 0
GlyphClass: 2
Flags: HW
PickledData: "(dp1
S'org.robofab.postScriptHintData'
p2
(dp3
sS'com.typemytype.robofont.layerData'
p4
(dp5
s."
LayerCount: 2
Fore
SplineSet
128 307 m 257
 128 362 l 257
 211 362 l 257
 211 655 l 257
 192 644 141 622 125 619 c 257
 125 674 l 257
 151 684 208 711 226 726 c 257
 280 726 l 257
 280 362 l 257
 361 362 l 257
 361 307 l 257
 128 307 l 257
EndSplineSet
Validated: 1
EndChar

StartChar: uni02C9
Encoding: 713 713 436
Width: 292
VWidth: 0
GlyphClass: 4
Flags: HW
PickledData: "(dp1
S'org.robofab.postScriptHintData'
p2
(dp3
s."
LayerCount: 2
Fore
SplineSet
-4 643 m 257
 -4 707 l 257
 294 707 l 257
 294 643 l 257
 -4 643 l 257
EndSplineSet
Validated: 1
EndChar

StartChar: uni0307
Encoding: 775 775 437
Width: 213
VWidth: 0
GlyphClass: 4
Flags: HW
PickledData: "(dp1
S'org.robofab.postScriptHintData'
p2
(dp3
sS'com.typemytype.robofont.layerData'
p4
(dp5
s."
LayerCount: 2
Fore
SplineSet
171 709 m 256
 171 671 149 649 109 649 c 256
 69 649 47 671 47 709 c 256
 47 746 69 767 109 767 c 256
 149 767 171 746 171 709 c 256
EndSplineSet
Validated: 1
EndChar

StartChar: uni2074
Encoding: 8308 8308 456
Width: 342
VWidth: 0
GlyphClass: 2
Flags: HW
PickledData: "(dp1
S'org.robofab.postScriptHintData'
p2
(dp3
sS'com.typemytype.robofont.layerData'
p4
(dp5
s."
LayerCount: 2
Fore
SplineSet
88 454 m 257
 200 454 l 257
 200 647 l 257
 88 454 l 257
200 303 m 257
 200 404 l 257
 23 404 l 257
 23 457 l 257
 196 727 l 257
 261 727 l 257
 261 454 l 257
 319 454 l 257
 316 404 l 257
 260 404 l 257
 261 303 l 257
 200 303 l 257
EndSplineSet
Validated: 1
EndChar

StartChar: afii61289
Encoding: 8467 8467 457
Width: 594
VWidth: 0
GlyphClass: 2
Flags: HW
PickledData: "(dp1
S'org.robofab.postScriptHintData'
p2
(dp3
s."
LayerCount: 2
Fore
SplineSet
309 393 m 257
 411 474 l 258
 489 536 538 593 538 676 c 256
 538 712 518 751 472 751 c 256
 463 751 453 749 442 746 c 256
 385 729 377 659 356 575 c 258
 309 393 l 257
148 129 m 256
 148 160 154 198 166 241 c 257
 61 163 l 257
 39 202 l 257
 185 312 l 257
 285 682 l 258
 315 792 384 825 450 825 c 256
 525 825 597 778 597 677 c 256
 597 574 550 517 431 422 c 258
 288 307 l 257
 262 204 l 258
 255 176 251 152 251 132 c 256
 251 87 271 65 313 65 c 256
 353 65 397 81 447 108 c 257
 459 48 l 257
 459 48 385 -10 274 -10 c 256
 198 -10 148 31 148 129 c 256
EndSplineSet
Validated: 1
EndChar

StartChar: Delta
Encoding: 8710 8710 459
Width: 626
VWidth: 0
GlyphClass: 2
Flags: HW
PickledData: "(dp1
S'org.pippin.gimp.org.kernagic'
p2
(dp3
S'lstem'
p4
I0
sS'rstem'
p5
I0
ssS'com.typemytype.robofont.layerData'
p6
(dp7
S'b'
(dp8
S'name'
p9
S'uni2206'
p10
sS'lib'
p11
(dp12
sS'unicodes'
p13
(tsS'width'
p14
I1278
sS'contours'
p15
(tsS'components'
p16
(tsS'anchors'
p17
(tsssS'org.robofab.postScriptHintData'
p18
(dp19
s."
LayerCount: 2
Fore
SplineSet
328 584 m 257
 312 642 l 257
 296 584 l 257
 128 85 l 257
 499 85 l 257
 328 584 l 257
268 753 m 257
 359 753 l 257
 595 42 l 257
 595 0 l 257
 32 0 l 257
 32 42 l 257
 268 753 l 257
EndSplineSet
Validated: 1
EndChar

StartChar: v
Encoding: 118 118 470
Width: 527
VWidth: 0
GlyphClass: 2
Flags: HW
PickledData: "(dp1
S'org.pippin.gimp.org.kernagic'
p2
(dp3
S'lstem'
p4
I0
sS'rstem'
p5
I0
ssS'com.typemytype.robofont.guides'
p6
((dp7
S'y'
I552
sS'x'
I438
sS'magnetic'
p8
I5
sS'angle'
p9
I0
sS'isGlobal'
p10
I00
stp11
sS'com.typemytype.robofont.layerData'
p12
(dp13
sS'org.robofab.postScriptHintData'
p14
(dp15
s."
LayerCount: 2
Fore
SplineSet
221 0 m 257
 30 528 l 257
 121 528 l 257
 169 386 218 244 268 104 c 257
 316 246 364 386 411 528 c 257
 500 528 l 257
 312 0 l 257
 221 0 l 257
EndSplineSet
Validated: 1
EndChar

StartChar: w
Encoding: 119 119 471
Width: 736
VWidth: 0
GlyphClass: 2
Flags: HW
PickledData: "(dp1
S'org.pippin.gimp.org.kernagic'
p2
(dp3
S'lstem'
p4
I0
sS'rstem'
p5
I0
ssS'com.typemytype.robofont.layerData'
p6
(dp7
sS'org.robofab.postScriptHintData'
p8
(dp9
s."
LayerCount: 2
Fore
SplineSet
371 443 m 257
 236 -0 l 257
 156 -0 l 257
 12 528 l 257
 95 528 l 257
 201 116 l 257
 323 528 l 257
 416 528 l 257
 545 115 l 257
 644 528 l 257
 725 528 l 257
 587 -0 l 257
 507 -0 l 257
 371 443 l 257
EndSplineSet
Validated: 1
EndChar

StartChar: x
Encoding: 120 120 476
Width: 516
VWidth: 0
GlyphClass: 2
Flags: HW
PickledData: "(dp1
S'org.pippin.gimp.org.kernagic'
p2
(dp3
S'lstem'
p4
I0
sS'rstem'
p5
I0
ssS'com.fontlab.hintData'
p6
(dp7
S'hhints'
p8
((dp9
S'position'
p10
I0
sS'width'
p11
I22
s(dp12
g10
I1034
sg11
I21
stp13
ssS'com.typemytype.robofont.layerData'
p14
(dp15
sS'org.robofab.postScriptHintData'
p16
(dp17
s."
HStem: 0 11 505 10
LayerCount: 2
Fore
SplineSet
309 269 m 257
 489 -0 l 257
 391 -0 l 257
 253 205 l 257
 115 -0 l 257
 25 -0 l 257
 211 268 l 257
 36 528 l 257
 135 528 l 257
 266 332 l 257
 398 528 l 257
 487 528 l 257
 309 269 l 257
EndSplineSet
Validated: 1
EndChar

StartChar: y
Encoding: 121 121 477
Width: 552
VWidth: 0
GlyphClass: 2
Flags: HW
PickledData: "(dp1
S'org.pippin.gimp.org.kernagic'
p2
(dp3
S'lstem'
p4
I0
sS'rstem'
p5
I0
ssS'com.typemytype.robofont.layerData'
p6
(dp7
sS'org.robofab.postScriptHintData'
p8
(dp9
s."
LayerCount: 2
Fore
SplineSet
529 528 m 257
 237 -202 l 257
 161 -183 l 257
 239 21 l 257
 19 528 l 257
 112 528 l 257
 283 119 l 257
 443 528 l 257
 529 528 l 257
EndSplineSet
Validated: 1
EndChar

StartChar: yen
Encoding: 165 165 481
Width: 666
VWidth: 0
GlyphClass: 2
Flags: HW
PickledData: "(dp1
S'org.pippin.gimp.org.kernagic'
p2
(dp3
S'lstem'
p4
I0
sS'rstem'
p5
I0
ssS'com.typemytype.robofont.layerData'
p6
(dp7
S'b'
(dp8
S'name'
p9
S'yen'
p10
sS'lib'
p11
(dp12
sS'unicodes'
p13
(tsS'width'
p14
I1366
sS'contours'
p15
(tsS'components'
p16
(tsS'anchors'
p17
(tsssS'org.robofab.postScriptHintData'
p18
(dp19
s."
LayerCount: 2
Fore
SplineSet
126 249 m 257
 126 303 l 257
 528 303 l 257
 528 249 l 257
 126 249 l 257
126 125 m 257
 126 179 l 257
 528 179 l 257
 528 125 l 257
 126 125 l 257
EndSplineSet
Refer: 121 89 N 1 0 0 1 0 0 2
Validated: 5
EndChar

StartChar: z
Encoding: 122 122 483
Width: 494
VWidth: 0
GlyphClass: 2
Flags: HW
PickledData: "(dp1
S'org.pippin.gimp.org.kernagic'
p2
(dp3
S'lstem'
p4
I0
sS'rstem'
p5
I0
ssS'com.typemytype.robofont.layerData'
p6
(dp7
sS'org.robofab.postScriptHintData'
p8
(dp9
s."
AnchorPoint: "bot" 235 0 basechar 0
LayerCount: 2
Fore
SplineSet
59 528 m 257
 434 528 l 257
 434 468 l 257
 148 66 l 257
 436 66 l 257
 439 0 l 257
 49 0 l 257
 49 57 l 257
 341 465 l 257
 62 465 l 257
 59 528 l 257
EndSplineSet
Validated: 1
EndChar

StartChar: zero
Encoding: 48 48 487
Width: 615
VWidth: 0
GlyphClass: 2
Flags: HW
PickledData: "(dp1
S'org.pippin.gimp.org.kernagic'
p2
(dp3
S'lstem'
p4
I0
sS'rstem'
p5
I0
ssS'com.typemytype.robofont.layerData'
p6
(dp7
S'b'
(dp8
S'name'
p9
S'zero'
p10
sS'lib'
p11
(dp12
sS'unicodes'
p13
(tsS'width'
p14
I1248
sS'contours'
p15
(tsS'components'
p16
(tsS'anchors'
p17
(tsssS'org.robofab.postScriptHintData'
p18
(dp19
s."
LayerCount: 2
Fore
SplineSet
310 -10 m 256
 141 -10 64 127 64 344 c 256
 64 572 148 721 310 721 c 256
 472 721 551 572 551 344 c 256
 551 127 479 -10 310 -10 c 256
310 66 m 256
 405 66 460 144 460 347 c 256
 460 553 405 646 310 646 c 256
 214 646 155 540 155 347 c 256
 155 145 214 66 310 66 c 256
EndSplineSet
Validated: 1
EndChar

StartChar: Sigma
Encoding: 931 931 489
Width: 519
VWidth: 0
GlyphClass: 2
Flags: HW
LayerCount: 2
Fore
SplineSet
42 711 m 257
 484 711 l 257
 484 636 l 257
 161 636 l 257
 382 302 l 257
 151 -18 l 257
 506 -18 l 257
 506 -97 l 257
 32 -97 l 257
 32 -47 l 257
 278 304 l 257
 42 659 l 257
 42 711 l 257
EndSplineSet
Validated: 1
EndChar

StartChar: uni03BC
Encoding: 956 956 490
Width: 584
VWidth: 0
GlyphClass: 2
Flags: HW
LayerCount: 2
Fore
SplineSet
423 126 m 257
 423 528 l 257
 511 528 l 257
 511 0 l 257
 435 0 l 257
 430 66 l 257
 395 22 343 -10 265 -10 c 256
 225 -10 191 -3 164 11 c 257
 164 -141 l 257
 75 -141 l 257
 75 528 l 257
 164 528 l 257
 164 199 l 258
 164 108 194 55 277 55 c 256
 360 55 403 100 423 126 c 257
EndSplineSet
Validated: 1
EndChar

StartChar: emptyset
Encoding: 8709 8709 491
Width: 819
VWidth: 0
GlyphClass: 2
Flags: HW
LayerCount: 2
Fore
SplineSet
55 358 m 256
 55 562 224 719 406 719 c 256
 491 719 574 685 637 628 c 257
 723 725 l 257
 741 711 l 257
 653 612 l 257
 716 548 758 459 758 358 c 256
 758 154 588 -3 406 -3 c 256
 323 -3 243 29 180 84 c 257
 86 -21 l 257
 71 -7 l 257
 165 99 l 257
 99 164 55 255 55 358 c 256
194 100 m 257
 253 49 328 18 406 18 c 256
 577 18 737 167 737 358 c 256
 737 452 699 536 639 597 c 257
 194 100 l 257
179 114 m 257
 623 612 l 257
 563 666 486 698 406 698 c 256
 235 698 76 549 76 358 c 256
 76 261 117 175 179 114 c 257
EndSplineSet
Validated: 1
EndChar

StartChar: uni03A9
Encoding: 937 937 492
Width: 782
VWidth: 0
GlyphClass: 2
Flags: HW
LayerCount: 2
Fore
SplineSet
60 0 m 257
 53 57 l 257
 229 57 l 257
 131 125 60 236 60 377 c 256
 60 577 204 707 398 707 c 256
 599 707 726 564 726 376 c 256
 726 232 640 123 554 57 c 257
 728 57 l 257
 722 0 l 257
 475 0 l 257
 474 54 l 257
 575 121 649 231 649 367 c 256
 649 516 564 644 396 644 c 256
 243 644 136 534 136 369 c 256
 136 234 206 121 310 54 c 257
 310 0 l 257
 60 0 l 257
EndSplineSet
Validated: 1
EndChar

StartChar: uni0358
Encoding: 856 856 493
Width: 213
VWidth: 0
GlyphClass: 4
Flags: HW
LayerCount: 2
Fore
SplineSet
171 709 m 256
 171 671 149 649 109 649 c 256
 69 649 47 671 47 709 c 256
 47 746 69 767 109 767 c 256
 149 767 171 746 171 709 c 256
EndSplineSet
Validated: 1
EndChar

StartChar: uni0259
Encoding: 601 601 494
Width: 558
VWidth: 0
GlyphClass: 2
Flags: HW
PickledData: "(dp1
S'com.fontlab.hintData'
p2
(dp3
S'hhints'
p4
((dp5
S'position'
p6
I1011
sS'width'
p7
I94
s(dp8
g6
I12
sg7
I92
stp9
ss."
HStem: 494 46 6 45
LayerCount: 2
Fore
SplineSet
422 224 m 257
 142 224 l 257
 143 118 184 56 268 56 c 256
 353 56 413 120 422 224 c 257
70 282 m 257
 423 282 l 257
 415 417 345 474 250 474 c 256
 189 474 150 455 107 430 c 257
 101 430 l 257
 81 488 l 257
 124 518 187 540 261 540 c 256
 404 540 514 437 514 268 c 256
 514 92 405 -10 272 -10 c 256
 143 -10 66 82 66 228 c 256
 66 243 70 281 70 282 c 257
EndSplineSet
Validated: 1
EndChar
